<svg id="svg" version="1.1" xmlns="http://www.w3.org/2000/svg" xmlns:xlink="http://www.w3.org/1999/xlink" width="400" height="307.9429735234216" viewBox="0, 0, 400,307.9429735234216"><g id="svgg"><path id="path0" d="M120.031 168.632 C 109.373 170.628,102.773 177.556,102.773 186.749 C 102.773 190.672,104.099 194.678,106.190 197.072 C 106.634 197.581,107.226 198.280,107.505 198.627 C 111.268 203.296,121.172 206.040,129.465 204.711 C 141.462 202.789,148.680 192.644,145.863 181.664 C 143.586 172.790,131.200 166.541,120.031 168.632 M312.327 168.624 C 307.344 169.584,303.045 171.586,300.486 174.137 C 298.120 176.496,295.847 179.932,295.835 181.168 C 295.833 181.441,295.631 182.219,295.386 182.897 C 294.864 184.348,294.792 188.231,295.256 189.985 C 295.436 190.663,295.658 191.613,295.751 192.096 C 296.553 196.288,303.029 202.443,307.982 203.723 C 314.299 205.355,316.404 205.499,321.901 204.675 C 324.214 204.328,328.296 203.027,328.814 202.471 C 328.898 202.380,329.510 202.029,330.173 201.692 C 334.891 199.292,338.216 193.411,338.580 186.822 L 338.720 184.276 326.602 184.357 L 314.484 184.438 314.484 188.136 L 314.484 191.834 320.951 191.988 C 328.375 192.165,328.632 192.279,326.191 194.318 C 321.052 198.613,310.407 198.109,306.032 193.364 C 302.500 189.532,302.742 183.008,306.539 179.666 C 312.459 174.455,322.726 174.909,328.187 180.623 C 328.653 181.111,329.201 181.510,329.404 181.510 C 330.094 181.510,336.518 178.077,336.510 177.712 C 336.500 177.237,334.506 175.138,332.793 173.799 C 332.045 173.214,331.237 172.548,330.997 172.318 C 330.512 171.852,326.996 170.093,325.385 169.511 C 322.626 168.512,315.437 168.024,312.327 168.624 M250.077 168.883 C 242.533 169.674,237.795 173.834,237.801 179.661 C 237.809 186.503,242.486 188.942,257.011 189.679 C 264.072 190.037,267.196 191.115,267.170 193.185 C 267.153 194.599,264.986 196.363,262.862 196.693 C 262.271 196.784,260.817 197.021,259.630 197.218 C 254.809 198.018,247.412 196.333,242.456 193.306 C 241.824 192.920,241.055 192.604,240.747 192.604 C 240.149 192.604,236.364 197.523,236.364 198.300 C 236.364 199.245,241.425 202.164,244.838 203.187 C 245.855 203.492,247.103 203.864,247.612 204.015 C 251.199 205.077,262.399 205.049,265.639 203.970 C 271.387 202.056,274.509 199.572,275.277 196.302 C 275.377 195.878,275.616 194.908,275.810 194.145 C 276.842 190.069,273.161 184.590,268.721 183.594 C 268.297 183.499,267.535 183.277,267.026 183.101 C 265.469 182.562,262.295 182.108,257.935 181.800 C 247.637 181.073,245.235 180.313,246.556 178.198 C 248.636 174.867,260.037 175.449,268.031 179.293 L 269.652 180.073 270.750 178.790 C 271.355 178.084,272.393 176.922,273.059 176.209 C 274.383 174.789,274.553 174.130,273.729 173.621 C 271.596 172.304,269.461 171.282,266.410 170.117 C 262.956 168.798,255.945 168.269,250.077 168.883 M17.024 169.439 C 16.718 169.633,16.653 173.337,16.715 186.923 L 16.795 204.160 20.878 204.246 L 24.961 204.332 24.961 198.530 C 24.961 194.428,25.070 192.619,25.331 192.357 C 25.602 192.087,28.130 191.988,34.782 191.988 C 51.480 191.988,55.316 189.887,55.316 180.740 C 55.316 174.403,52.045 170.505,45.892 169.511 C 43.522 169.128,17.615 169.063,17.024 169.439 M60.542 169.569 C 60.461 169.780,60.431 177.650,60.475 187.057 L 60.555 204.160 64.209 204.247 C 69.041 204.363,68.721 204.794,68.721 198.175 C 68.721 191.366,68.029 191.983,75.639 192.009 C 83.167 192.036,82.362 191.698,85.520 196.153 C 86.959 198.184,88.241 199.988,88.367 200.161 C 88.494 200.335,89.078 201.167,89.664 202.010 C 91.282 204.336,91.159 204.294,96.233 204.305 L 100.786 204.314 100.283 203.342 C 100.007 202.807,99.653 202.217,99.498 202.032 C 98.782 201.179,96.764 198.095,96.764 197.855 C 96.764 197.707,96.647 197.540,96.504 197.483 C 96.073 197.314,92.881 192.506,92.678 191.722 C 92.523 191.121,92.647 190.935,93.394 190.653 C 93.892 190.465,94.299 190.203,94.299 190.071 C 94.299 189.939,94.478 189.831,94.697 189.831 C 95.197 189.831,97.689 187.318,97.689 186.814 C 97.689 186.609,97.793 186.441,97.922 186.441 C 98.984 186.441,99.633 178.876,98.752 176.755 C 95.865 169.802,93.854 169.183,74.156 169.183 C 63.667 169.183,60.657 169.269,60.542 169.569 M151.002 186.749 L 151.002 204.314 162.770 204.314 C 176.053 204.314,179.437 203.934,182.589 202.090 C 183.097 201.792,183.854 201.401,184.271 201.220 C 186.612 200.203,190.667 194.747,191.476 191.525 C 192.177 188.733,191.690 181.089,190.752 180.151 C 190.584 179.983,190.447 179.659,190.447 179.430 C 190.447 178.015,187.082 174.102,184.438 172.443 C 179.856 169.568,177.195 169.179,162.173 169.181 L 151.002 169.183 151.002 186.749 M196.610 186.749 L 196.610 204.314 214.632 204.314 L 232.654 204.314 232.827 203.621 C 232.922 203.240,232.959 201.541,232.910 199.846 L 232.820 196.764 219.288 196.684 C 203.638 196.591,204.931 196.903,204.931 193.220 C 204.931 189.602,204.222 189.854,214.664 189.758 L 223.575 189.676 223.663 186.518 C 223.796 181.733,224.691 182.150,214.090 182.054 L 205.085 181.972 204.990 180.136 C 204.939 179.126,204.975 177.984,205.072 177.597 L 205.249 176.894 218.418 176.814 L 231.587 176.733 231.675 173.214 C 231.740 170.606,231.660 169.630,231.367 169.444 C 231.149 169.306,223.240 169.191,213.790 169.188 L 196.610 169.183 196.610 186.749 M281.356 186.749 L 281.356 204.314 285.175 204.314 C 288.373 204.314,289.025 204.235,289.181 203.827 C 289.284 203.559,289.368 195.874,289.368 186.749 C 289.368 177.624,289.284 169.939,289.181 169.671 C 289.025 169.263,288.373 169.183,285.175 169.183 L 281.356 169.183 281.356 186.749 M344.284 169.553 C 343.851 169.985,343.745 203.263,344.174 203.939 C 344.361 204.234,345.428 204.312,348.406 204.247 L 352.388 204.160 352.542 192.784 C 352.708 180.549,352.733 180.390,354.238 182.190 C 354.704 182.748,356.753 184.975,358.790 187.139 C 360.828 189.303,362.753 191.372,363.069 191.736 C 364.305 193.161,370.083 199.352,372.440 201.776 L 374.926 204.333 379.065 204.247 L 383.205 204.160 383.285 186.832 L 383.364 169.505 382.668 169.331 C 382.285 169.236,380.447 169.199,378.582 169.248 L 375.193 169.337 375.039 180.637 C 374.954 186.852,374.770 192.051,374.630 192.191 C 374.490 192.331,373.797 191.818,373.089 191.053 C 372.382 190.287,370.083 187.824,367.982 185.580 C 365.881 183.335,363.917 181.217,363.618 180.872 C 362.757 179.880,356.905 173.606,354.679 171.289 L 352.656 169.183 348.655 169.183 C 345.953 169.183,344.533 169.304,344.284 169.553 M128.615 176.435 C 139.663 179.192,141.602 192.256,131.522 196.026 C 121.304 199.848,111.402 195.283,111.402 186.749 C 111.402 179.160,119.673 174.205,128.615 176.435 M44.517 177.321 C 47.765 178.452,48.184 182.645,45.164 183.798 C 44.059 184.220,42.493 184.281,34.492 184.211 L 25.116 184.129 25.025 181.202 C 24.976 179.592,25.013 177.962,25.108 177.581 L 25.281 176.888 34.289 176.892 C 41.136 176.896,43.590 176.999,44.517 177.321 M88.199 177.295 C 91.478 178.437,91.978 182.631,88.973 183.779 C 87.021 184.525,69.194 184.540,68.908 183.796 C 68.557 182.882,68.704 177.644,69.091 177.257 C 69.635 176.714,86.626 176.747,88.199 177.295 M175.832 177.343 C 179.387 178.269,181.891 180.451,182.835 183.447 C 183.388 185.201,183.539 188.855,183.096 189.758 C 182.952 190.052,182.577 190.847,182.265 191.525 C 181.170 193.899,179.483 195.246,176.530 196.104 C 174.010 196.837,160.227 196.854,159.498 196.126 C 158.912 195.539,158.761 178.552,159.333 177.484 C 159.759 176.688,172.886 176.576,175.832 177.343 " stroke="none" fill="#191911" fill-rule="evenodd"></path><path id="path1" d="M0.000 154.083 L 0.000 308.166 200.000 308.166 L 400.000 308.166 400.000 154.083 L 400.000 0.000 200.000 0.000 L 0.000 0.000 0.000 154.083 M240.126 69.967 C 241.230 70.698,243.656 74.036,244.932 76.579 C 246.415 79.534,247.711 82.569,248.224 84.284 C 248.528 85.300,248.884 86.410,249.016 86.749 C 250.790 91.319,251.019 102.221,249.454 107.550 C 249.180 108.482,248.836 109.661,248.690 110.169 C 247.770 113.368,245.136 118.394,242.638 121.718 C 241.816 122.812,236.634 127.971,235.901 128.425 C 235.562 128.635,234.510 129.355,233.562 130.025 C 228.885 133.331,220.320 136.510,214.330 137.162 C 207.558 137.899,202.307 138.093,193.837 137.919 C 181.604 137.668,179.693 137.370,174.422 134.889 C 170.589 133.084,165.931 128.173,164.118 124.024 C 163.824 123.353,163.447 122.546,163.278 122.231 C 161.913 119.674,161.922 108.989,163.292 106.407 C 163.757 105.529,164.561 103.624,164.561 103.398 C 164.561 101.425,171.838 94.726,175.856 93.000 C 181.611 90.528,207.764 89.560,212.165 91.657 C 215.900 93.437,216.855 98.326,214.057 101.344 C 212.107 103.448,211.328 103.588,202.801 103.375 C 194.576 103.169,182.653 103.558,181.664 104.065 C 181.325 104.238,180.562 104.632,179.969 104.939 C 173.808 108.130,172.634 116.695,177.651 121.857 C 180.524 124.812,182.109 125.124,195.299 125.330 C 207.870 125.525,213.338 125.091,218.028 123.522 C 218.536 123.352,219.368 123.104,219.877 122.972 C 224.536 121.763,230.816 117.052,233.659 112.634 C 235.155 110.310,236.980 106.561,236.980 105.813 C 236.980 105.560,237.105 105.119,237.258 104.833 C 238.176 103.118,238.178 94.193,237.261 91.063 C 235.976 86.675,234.250 82.782,232.340 79.962 C 229.426 75.661,230.085 71.633,234.052 69.497 C 235.453 68.743,238.652 68.990,240.126 69.967 M209.399 74.597 C 217.894 75.264,222.614 77.302,227.276 82.315 C 234.651 90.244,235.424 102.569,229.101 111.402 C 225.253 116.778,220.142 119.846,212.943 121.102 C 209.827 121.646,186.303 121.623,184.387 121.074 C 179.143 119.571,178.027 112.526,182.588 109.708 C 183.695 109.023,183.827 109.017,197.168 108.940 C 211.503 108.858,212.549 108.765,215.377 107.321 C 220.498 104.706,222.565 96.657,219.264 92.181 C 218.589 91.265,216.462 89.149,216.025 88.958 C 215.770 88.847,215.354 88.638,215.100 88.494 C 214.846 88.349,214.298 88.053,213.883 87.834 C 213.142 87.445,209.528 87.162,199.599 86.716 C 190.829 86.322,180.343 87.464,175.193 89.374 C 168.941 91.692,162.137 97.269,160.651 101.292 C 160.538 101.598,160.152 102.334,159.792 102.928 C 159.145 103.996,158.472 105.959,157.733 108.936 C 157.119 111.407,157.315 118.035,158.083 120.801 C 158.436 122.072,158.837 123.529,158.974 124.037 C 159.226 124.970,161.262 129.499,161.815 130.354 C 161.979 130.609,162.195 131.059,162.295 131.356 C 162.394 131.653,162.582 131.895,162.712 131.895 C 162.842 131.895,163.032 132.138,163.134 132.435 C 163.236 132.731,163.624 133.459,163.997 134.052 C 167.761 140.043,159.166 146.614,154.292 141.473 C 153.335 140.463,149.769 134.945,149.769 134.473 C 149.769 134.362,149.261 133.217,148.641 131.928 C 148.021 130.639,147.406 129.168,147.276 128.659 C 147.145 128.151,146.811 126.972,146.534 126.040 C 144.475 119.112,144.242 107.772,146.084 104.121 C 146.223 103.845,146.431 103.116,146.547 102.500 C 146.663 101.884,146.880 101.304,147.030 101.211 C 147.181 101.118,147.304 100.763,147.304 100.422 C 147.304 99.576,150.456 93.612,152.005 91.525 C 158.462 82.834,168.826 76.883,180.431 75.203 C 186.688 74.298,201.615 73.985,209.399 74.597 M129.584 167.950 C 130.262 168.105,131.233 168.317,131.741 168.422 C 132.636 168.607,133.179 168.803,135.131 169.648 C 135.639 169.868,136.263 170.130,136.518 170.230 C 137.815 170.741,141.356 173.371,142.504 174.677 C 144.149 176.548,145.129 177.950,145.138 178.444 C 145.143 178.706,145.308 179.083,145.506 179.281 C 147.120 180.895,147.797 191.265,146.347 192.162 C 146.195 192.255,146.071 192.654,146.071 193.047 C 146.071 193.440,145.863 193.934,145.609 194.145 C 145.354 194.356,145.146 194.789,145.146 195.107 C 145.146 195.425,145.008 195.686,144.838 195.686 C 144.669 195.686,144.529 195.859,144.529 196.071 C 144.523 197.782,136.543 204.000,134.345 204.005 C 134.082 204.006,133.730 204.144,133.562 204.312 C 132.117 205.756,117.189 205.756,115.745 204.312 C 115.577 204.144,115.224 204.006,114.961 204.005 C 112.276 203.998,105.827 198.594,104.033 194.845 C 103.564 193.867,103.043 192.808,102.875 192.491 C 101.871 190.602,101.864 183.025,102.865 180.989 C 105.510 175.610,107.181 173.634,111.220 171.111 C 111.829 170.731,112.535 170.337,112.789 170.234 C 113.043 170.132,113.667 169.868,114.176 169.648 C 116.124 168.805,116.670 168.607,117.565 168.419 C 118.074 168.313,118.975 168.110,119.569 167.969 C 121.047 167.619,128.070 167.605,129.584 167.950 M259.322 167.972 C 260.169 168.133,261.626 168.390,262.558 168.543 C 266.223 169.144,268.614 170.030,272.727 172.311 C 275.655 173.934,275.693 174.101,273.693 176.486 C 269.948 180.954,270.016 180.919,267.384 179.723 C 266.340 179.248,264.653 178.605,263.636 178.293 C 262.619 177.981,261.454 177.572,261.047 177.384 C 260.031 176.914,249.057 176.916,248.756 177.385 C 248.635 177.574,248.216 177.829,247.825 177.951 C 247.285 178.120,247.137 178.363,247.209 178.962 C 247.338 180.034,249.157 180.512,254.545 180.888 C 261.972 181.407,265.259 181.758,265.897 182.099 C 266.242 182.284,266.871 182.435,267.296 182.435 C 267.721 182.435,268.144 182.557,268.237 182.708 C 268.330 182.858,268.893 183.072,269.488 183.184 C 270.083 183.296,270.570 183.519,270.570 183.681 C 270.570 183.843,270.842 183.975,271.175 183.975 C 271.896 183.975,275.501 187.441,275.501 188.135 C 275.501 188.402,275.722 188.957,275.992 189.370 C 277.984 192.409,274.166 202.465,271.021 202.465 C 270.801 202.465,270.575 202.569,270.519 202.696 C 270.366 203.040,268.168 204.006,267.540 204.006 C 267.240 204.006,266.849 204.153,266.670 204.331 C 265.315 205.687,250.302 205.710,246.379 204.363 C 245.871 204.188,244.657 203.800,243.683 203.500 C 242.708 203.200,241.911 202.844,241.911 202.710 C 241.911 202.575,241.650 202.465,241.332 202.465 C 241.014 202.465,240.581 202.257,240.370 202.003 C 240.159 201.749,239.759 201.541,239.481 201.541 C 239.204 201.541,238.603 201.194,238.146 200.770 C 237.689 200.347,237.194 200.000,237.047 200.000 C 236.900 200.000,236.456 199.655,236.060 199.234 C 235.192 198.310,235.231 198.208,237.750 194.833 C 240.301 191.416,240.333 191.402,242.576 192.738 C 243.590 193.342,244.538 193.837,244.681 193.837 C 244.825 193.837,245.404 194.068,245.969 194.351 C 247.876 195.307,248.064 195.378,248.701 195.378 C 249.051 195.378,249.712 195.569,250.169 195.804 C 251.268 196.367,257.744 196.700,260.709 196.346 C 264.724 195.867,266.256 194.988,266.256 193.166 C 266.256 191.308,263.709 190.676,253.929 190.110 C 249.739 189.867,245.544 189.257,245.119 188.829 C 244.993 188.702,244.558 188.598,244.153 188.598 C 242.321 188.598,238.104 185.191,237.731 183.409 C 237.636 182.958,237.429 182.348,237.270 182.053 C 236.883 181.339,236.898 177.591,237.288 177.350 C 237.458 177.245,237.596 176.894,237.596 176.571 C 237.596 175.139,240.039 171.944,241.959 170.867 C 244.262 169.573,246.642 168.663,248.382 168.409 C 249.145 168.297,250.393 168.098,251.156 167.966 C 253.125 167.624,257.507 167.627,259.322 167.972 M322.216 168.101 C 323.048 168.354,324.036 168.562,324.410 168.564 C 325.352 168.568,330.618 171.106,331.712 172.082 C 332.204 172.522,332.712 172.881,332.840 172.881 C 333.302 172.881,337.440 177.362,337.441 177.862 C 337.442 178.451,330.445 182.126,329.323 182.126 C 328.949 182.126,328.300 181.745,327.881 181.279 C 324.181 177.165,315.596 175.486,310.546 177.889 C 309.567 178.355,308.709 178.737,308.640 178.737 C 308.571 178.737,307.898 179.298,307.144 179.984 C 302.123 184.553,303.445 192.358,309.707 195.110 C 310.470 195.445,311.400 195.871,311.774 196.055 C 312.990 196.657,320.901 196.486,322.424 195.825 C 323.966 195.156,326.656 193.288,326.656 192.886 C 326.656 192.725,323.968 192.604,320.377 192.604 C 312.791 192.604,313.357 192.986,313.473 187.947 C 313.557 184.241,313.579 184.137,314.330 183.757 C 315.670 183.080,338.162 183.198,338.850 183.886 C 339.806 184.843,339.178 191.011,337.862 193.576 C 337.631 194.026,337.442 194.553,337.442 194.748 C 337.442 196.136,331.290 202.465,329.941 202.465 C 329.688 202.465,329.435 202.569,329.379 202.696 C 329.204 203.090,327.363 204.006,326.748 204.006 C 326.426 204.006,326.026 204.144,325.858 204.312 C 324.870 205.299,314.311 205.950,310.940 205.231 C 302.300 203.389,295.576 197.088,294.579 189.900 C 294.421 188.760,294.223 187.639,294.138 187.409 C 293.930 186.842,294.500 183.285,295.133 181.202 C 296.029 178.252,298.648 174.633,301.387 172.560 C 302.149 171.983,302.843 171.438,302.928 171.348 C 303.261 170.998,305.159 170.108,305.572 170.108 C 305.812 170.108,306.009 169.980,306.009 169.824 C 306.009 169.668,306.455 169.443,307.001 169.323 C 307.546 169.203,308.205 168.996,308.464 168.862 C 310.713 167.708,319.343 167.230,322.216 168.101 M47.392 169.068 C 57.328 171.957,59.679 186.169,50.956 190.613 C 50.303 190.945,49.700 191.289,49.615 191.377 C 48.830 192.189,46.168 192.414,36.133 192.518 L 25.578 192.627 25.578 198.409 C 25.578 205.453,25.960 204.931,20.801 204.931 C 18.072 204.931,16.644 204.811,16.394 204.561 C 15.992 204.158,15.831 169.172,16.230 168.772 C 16.728 168.275,45.606 168.549,47.392 169.068 M91.085 169.054 C 96.357 170.744,98.839 173.486,99.826 178.712 C 100.327 181.366,99.249 187.057,98.246 187.057 C 98.109 187.057,97.997 187.239,97.997 187.461 C 97.997 188.049,96.242 189.749,94.705 190.650 C 93.973 191.079,93.374 191.566,93.374 191.732 C 93.374 192.086,96.500 196.715,96.841 196.867 C 96.968 196.923,97.072 197.098,97.072 197.255 C 97.072 197.412,97.835 198.572,98.767 199.832 C 99.700 201.093,100.462 202.270,100.462 202.449 C 100.462 202.627,100.598 202.773,100.765 202.773 C 101.284 202.773,101.518 204.350,101.043 204.651 C 100.349 205.090,91.419 204.998,90.855 204.545 C 90.191 204.012,87.827 200.715,87.827 200.321 C 87.827 200.145,87.700 200.000,87.544 200.000 C 87.389 200.000,86.944 199.480,86.556 198.844 C 86.168 198.209,85.741 197.643,85.606 197.586 C 85.472 197.530,85.362 197.346,85.362 197.179 C 85.362 197.011,85.189 196.689,84.977 196.461 C 84.765 196.234,84.063 195.274,83.418 194.326 L 82.243 192.604 75.790 192.604 L 69.337 192.604 69.337 198.607 C 69.337 205.686,69.912 205.000,64.099 204.866 L 60.247 204.777 60.167 187.057 C 60.123 177.311,60.153 169.164,60.234 168.952 C 60.479 168.311,89.061 168.405,91.085 169.054 M177.658 169.057 C 178.844 169.327,180.092 169.663,180.431 169.804 C 180.770 169.945,181.429 170.143,181.895 170.244 C 182.361 170.345,182.743 170.564,182.743 170.730 C 182.743 170.896,182.957 171.032,183.218 171.032 C 184.809 171.032,190.755 176.936,190.755 178.515 C 190.755 178.786,190.881 179.086,191.035 179.181 C 192.233 179.922,193.068 189.967,192.102 192.019 C 191.910 192.425,191.504 193.382,191.199 194.145 C 190.193 196.660,187.397 199.995,185.256 201.233 C 184.816 201.487,184.269 201.868,184.040 202.080 C 183.811 202.292,183.425 202.465,183.183 202.465 C 182.941 202.465,182.743 202.575,182.743 202.710 C 182.743 202.844,181.945 203.200,180.971 203.500 C 179.996 203.800,178.783 204.205,178.274 204.399 C 177.300 204.773,152.442 205.127,151.087 204.787 L 150.385 204.611 150.385 186.794 C 150.385 176.995,150.478 168.885,150.591 168.772 C 151.071 168.292,175.424 168.548,177.658 169.057 M232.290 172.839 C 232.406 178.395,234.011 177.812,218.606 177.812 L 205.547 177.812 205.547 179.661 L 205.547 181.510 214.576 181.510 C 225.282 181.510,224.345 181.088,224.345 185.906 C 224.345 191.253,225.343 190.755,214.627 190.755 L 205.547 190.755 205.547 193.220 L 205.547 195.686 219.253 195.686 L 232.960 195.686 233.457 196.444 C 234.098 197.423,233.993 203.614,233.321 204.422 C 232.773 205.081,197.018 205.215,196.364 204.561 C 195.971 204.168,195.797 170.056,196.182 169.052 C 196.351 168.611,198.149 168.570,214.287 168.642 L 232.203 168.721 232.290 172.839 M289.974 169.163 C 290.564 170.266,290.399 203.856,289.800 204.455 C 289.387 204.867,288.623 204.934,285.100 204.862 L 280.894 204.777 280.814 187.057 C 280.770 177.311,280.800 169.164,280.881 168.952 C 281.158 168.229,289.578 168.424,289.974 169.163 M355.823 171.536 C 357.324 173.169,359.176 175.162,359.938 175.964 C 361.911 178.038,364.646 180.982,367.398 183.995 C 368.705 185.425,370.819 187.697,372.098 189.043 L 374.422 191.492 374.427 180.415 C 374.430 174.322,374.544 169.160,374.682 168.943 C 374.870 168.647,376.027 168.571,379.376 168.635 L 383.821 168.721 383.901 186.406 C 383.958 199.211,383.884 204.207,383.632 204.511 C 383.368 204.829,382.221 204.931,378.884 204.931 L 374.484 204.931 372.657 203.005 C 371.652 201.945,370.147 200.327,369.313 199.408 C 368.479 198.489,367.242 197.157,366.564 196.448 C 365.324 195.152,364.344 194.102,358.398 187.700 C 353.454 182.377,353.212 182.126,353.029 182.126 C 352.935 182.126,352.822 187.223,352.777 193.451 L 352.696 204.777 348.228 204.777 L 343.760 204.777 343.680 187.057 C 343.636 177.311,343.666 169.164,343.747 168.952 C 343.856 168.668,345.098 168.567,348.494 168.567 L 353.094 168.567 355.823 171.536 M120.955 177.085 C 120.277 177.160,118.991 177.562,118.096 177.979 C 117.202 178.396,116.396 178.737,116.306 178.737 C 116.216 178.737,115.542 179.299,114.808 179.987 C 109.902 184.585,111.166 192.356,117.257 195.044 C 120.174 196.331,120.573 196.405,124.653 196.405 C 128.762 196.405,129.108 196.340,132.162 194.997 C 133.859 194.251,136.397 191.699,136.667 190.467 C 136.781 189.951,137.001 189.450,137.158 189.354 C 137.314 189.257,137.442 188.085,137.442 186.749 C 137.442 185.413,137.314 184.241,137.158 184.144 C 137.001 184.047,136.782 183.554,136.671 183.047 C 136.560 182.541,136.341 182.126,136.185 182.126 C 136.029 182.126,135.901 181.982,135.901 181.806 C 135.901 181.231,133.355 179.046,131.915 178.384 C 131.141 178.029,130.256 177.609,129.947 177.451 C 129.325 177.132,122.891 176.870,120.955 177.085 M25.578 180.586 L 25.578 183.359 35.391 183.359 C 46.719 183.359,46.225 183.487,46.225 180.551 C 46.225 177.799,46.277 177.812,35.006 177.812 L 25.578 177.812 25.578 180.586 M69.555 178.005 C 69.244 178.316,69.294 182.814,69.614 183.318 C 70.112 184.105,88.170 183.683,89.278 182.859 C 90.442 181.993,90.643 179.851,89.665 178.723 L 89.009 177.966 79.391 177.877 C 74.101 177.828,69.675 177.886,69.555 178.005 M159.938 186.774 L 159.938 195.736 168.490 195.622 C 177.461 195.501,177.172 195.544,179.447 194.016 C 183.653 191.191,183.621 182.508,179.394 179.648 C 176.826 177.911,176.429 177.848,167.874 177.829 L 159.938 177.812 159.938 186.774 M176.756 224.549 C 185.709 227.569,184.241 238.346,174.741 239.339 C 166.377 240.213,160.970 232.668,165.984 227.119 C 168.461 224.377,173.021 223.289,176.756 224.549 M258.420 224.544 C 268.705 227.979,264.874 240.484,253.888 239.336 C 245.588 238.468,242.883 229.679,249.633 225.511 C 252.013 224.042,255.700 223.636,258.420 224.544 M118.267 224.825 C 118.939 225.295,118.952 225.433,118.952 231.920 L 118.952 238.536 118.114 238.855 C 115.986 239.664,115.871 239.311,115.871 232.003 C 115.871 224.355,116.198 223.375,118.267 224.825 M129.584 227.826 C 131.448 229.745,133.726 232.174,134.644 233.223 C 136.863 235.757,136.798 235.846,136.895 230.135 L 136.980 225.138 137.806 224.675 C 139.671 223.629,139.908 224.450,139.908 231.950 L 139.908 238.534 139.161 238.874 C 137.509 239.627,136.478 239.029,133.092 235.355 C 125.519 227.139,126.052 227.234,126.045 234.096 L 126.040 238.762 125.263 238.957 C 123.337 239.441,123.267 239.188,123.267 231.746 C 123.267 224.288,123.242 224.380,125.270 224.351 C 126.050 224.339,126.723 224.881,129.584 227.826 M149.313 226.880 C 150.503 228.113,152.639 230.370,154.059 231.895 C 157.916 236.036,157.781 236.103,157.781 230.074 C 157.781 224.619,157.941 224.065,159.384 224.515 C 160.511 224.867,160.545 225.083,160.550 231.980 L 160.555 238.536 159.710 238.857 C 158.187 239.436,157.076 238.957,155.163 236.897 C 148.352 229.563,147.194 228.382,146.955 228.530 C 146.808 228.621,146.687 230.960,146.687 233.726 C 146.687 239.247,146.572 239.524,144.579 238.787 C 143.641 238.440,143.523 225.231,144.453 224.663 C 145.680 223.913,147.055 224.540,149.313 226.880 M186.678 224.884 C 187.015 225.181,187.954 226.672,188.763 228.197 C 193.435 237.000,192.626 236.718,195.835 230.663 C 199.302 224.121,199.788 223.599,201.345 224.739 C 201.969 225.195,202.126 224.845,197.305 233.744 C 196.571 235.100,195.675 236.788,195.316 237.494 C 194.204 239.680,191.615 239.617,190.517 237.378 C 190.202 236.735,189.433 235.273,188.809 234.129 C 188.184 232.985,187.205 231.183,186.632 230.123 C 186.059 229.064,185.217 227.529,184.762 226.713 C 183.601 224.634,184.939 223.357,186.678 224.884 M212.879 224.884 C 213.220 225.181,214.362 227.088,215.416 229.122 C 216.470 231.156,218.019 234.102,218.857 235.670 L 220.382 238.520 219.590 238.821 C 218.412 239.269,217.428 238.747,216.592 237.232 L 215.859 235.901 211.408 235.901 L 206.958 235.901 206.330 236.866 C 205.984 237.396,205.562 238.043,205.393 238.303 C 205.004 238.900,203.384 239.231,202.773 238.839 C 202.380 238.586,202.483 238.209,203.471 236.297 C 207.777 227.964,209.554 224.812,210.059 224.614 C 211.068 224.217,212.241 224.330,212.879 224.884 M236.384 224.664 C 238.460 225.775,236.601 227.119,232.987 227.119 C 230.013 227.119,230.200 226.695,230.200 233.425 C 230.200 239.285,230.141 239.443,228.136 238.940 C 227.449 238.768,227.439 238.696,227.356 233.019 L 227.273 227.273 224.345 227.115 C 220.738 226.921,219.274 225.792,221.186 224.678 C 221.916 224.253,235.592 224.240,236.384 224.664 M241.849 224.715 C 242.114 224.980,242.219 227.015,242.219 231.921 L 242.219 238.757 241.497 238.895 C 239.458 239.285,239.445 239.239,239.445 231.741 C 239.445 224.978,239.449 224.940,240.139 224.663 C 241.098 224.277,241.421 224.287,241.849 224.715 M273.035 226.416 C 273.968 227.396,276.285 229.862,278.186 231.896 L 281.641 235.593 281.653 230.453 C 281.666 224.495,281.979 223.667,283.842 224.664 C 284.404 224.965,284.438 225.377,284.438 231.870 L 284.438 238.757 283.590 238.922 C 281.777 239.273,281.155 238.852,277.011 234.471 C 274.783 232.114,272.689 229.843,272.359 229.423 C 271.059 227.771,270.878 228.281,270.878 233.600 C 270.878 239.021,270.782 239.269,268.826 238.895 L 268.105 238.757 268.105 231.875 C 268.105 224.180,268.104 224.182,270.262 224.484 C 271.074 224.597,271.759 225.074,273.035 226.416 M169.954 227.354 C 164.579 230.131,167.085 236.980,173.476 236.980 C 179.675 236.980,182.119 230.096,176.871 227.418 C 175.375 226.655,171.378 226.618,169.954 227.354 M251.837 227.260 C 245.267 230.887,249.959 238.616,257.506 236.598 C 262.214 235.339,262.848 229.619,258.525 227.413 C 257.142 226.707,253.010 226.613,251.837 227.260 M210.894 228.117 C 208.027 232.757,208.061 233.282,211.230 233.282 C 214.461 233.282,214.488 233.232,212.910 230.209 C 211.608 227.714,211.325 227.420,210.894 228.117 " stroke="none" fill="#fbfbfb" fill-rule="evenodd"></path><path id="path2" d="M234.325 69.910 C 231.230 71.357,229.928 75.940,231.942 78.299 C 232.171 78.566,232.357 78.900,232.357 79.040 C 232.357 79.180,232.678 79.724,233.069 80.248 C 236.561 84.926,239.354 95.227,238.520 100.356 C 238.303 101.685,238.062 103.328,237.984 104.006 C 237.905 104.684,237.717 105.371,237.565 105.532 C 237.413 105.693,237.288 106.082,237.288 106.396 C 237.288 107.356,235.422 110.928,233.471 113.704 C 230.690 117.660,223.005 123.267,220.364 123.267 C 220.079 123.267,219.714 123.383,219.553 123.526 C 219.143 123.889,215.788 124.696,212.349 125.257 C 207.724 126.013,185.503 125.946,182.698 125.168 C 179.340 124.237,175.040 120.817,175.039 119.077 C 175.039 118.891,174.817 118.295,174.547 117.753 C 173.136 114.925,174.444 109.443,177.240 106.459 C 180.305 103.190,182.451 102.826,198.959 102.778 C 210.430 102.745,211.709 102.691,212.447 102.207 C 216.093 99.818,216.055 94.844,212.371 92.350 L 211.085 91.479 201.305 91.324 C 188.762 91.125,179.618 91.657,177.615 92.701 C 177.300 92.865,176.140 93.445,175.039 93.988 C 168.846 97.043,163.881 103.436,162.832 109.707 C 162.185 113.578,162.723 119.886,163.910 122.344 C 164.268 123.085,164.561 123.823,164.561 123.985 C 164.561 125.797,172.552 134.361,174.243 134.361 C 174.332 134.361,175.137 134.698,176.032 135.111 C 178.478 136.239,180.927 136.767,185.418 137.131 C 189.648 137.475,206.461 137.603,207.741 137.301 C 208.144 137.206,210.139 136.992,212.173 136.826 C 214.206 136.659,216.772 136.304,217.874 136.037 C 218.975 135.769,220.362 135.435,220.955 135.294 C 223.051 134.795,226.629 133.376,230.007 131.702 C 233.316 130.063,239.254 125.173,241.840 121.959 C 245.574 117.316,248.089 111.793,249.615 104.879 C 250.059 102.869,250.073 92.885,249.633 91.729 C 249.454 91.256,249.307 90.536,249.307 90.129 C 249.307 89.723,249.098 88.726,248.844 87.915 C 248.590 87.104,248.155 85.678,247.879 84.746 C 246.374 79.670,242.316 72.325,239.988 70.464 C 238.485 69.263,236.189 69.038,234.325 69.910 M185.054 75.208 C 181.660 75.426,177.755 75.956,176.888 76.316 C 176.633 76.422,175.871 76.617,175.193 76.751 C 171.264 77.526,165.133 80.388,161.017 83.368 C 157.571 85.863,151.618 91.960,151.618 92.994 C 151.618 93.162,151.423 93.461,151.184 93.659 C 150.554 94.182,147.802 99.995,147.161 102.157 C 146.860 103.174,146.536 104.214,146.443 104.468 C 144.900 108.645,145.010 119.169,146.655 124.807 C 146.828 125.401,147.167 126.580,147.408 127.429 C 148.382 130.860,152.419 138.789,154.203 140.774 C 158.793 145.883,167.234 140.173,163.684 134.361 C 163.322 133.767,162.930 133.074,162.814 132.820 C 162.698 132.565,162.497 132.285,162.368 132.197 C 162.018 131.958,158.965 125.723,158.674 124.653 C 158.536 124.145,158.189 122.966,157.904 122.034 C 156.478 117.379,156.730 108.039,158.368 104.843 C 158.517 104.552,159.086 103.416,159.631 102.319 C 163.440 94.655,169.515 90.209,179.815 87.546 C 188.057 85.416,216.025 86.155,216.025 88.503 C 216.025 88.640,216.192 88.752,216.397 88.752 C 217.752 88.752,220.559 93.055,221.272 96.225 C 222.194 100.325,219.451 105.810,215.477 107.817 C 212.486 109.327,211.682 109.398,197.487 109.410 C 183.547 109.421,183.776 109.401,182.099 110.786 C 179.284 113.111,179.682 117.890,182.854 119.850 C 186.159 121.893,214.147 121.436,218.458 119.269 C 218.730 119.132,219.507 118.763,220.185 118.447 C 223.262 117.016,227.011 113.739,229.089 110.665 C 232.230 106.020,233.817 98.620,232.633 94.145 C 232.454 93.467,232.239 92.496,232.155 91.988 C 232.072 91.479,231.816 90.647,231.587 90.139 C 231.358 89.630,230.932 88.659,230.640 87.982 C 229.383 85.064,225.812 80.981,222.804 79.023 C 222.042 78.526,221.371 78.016,221.315 77.889 C 221.258 77.762,221.002 77.658,220.746 77.658 C 220.490 77.658,219.912 77.467,219.462 77.233 C 216.818 75.861,215.288 75.531,210.015 75.196 C 205.253 74.893,189.849 74.901,185.054 75.208 " stroke="none" fill="#1e75cc" fill-rule="evenodd"></path><path id="path3" d="M119.008 168.439 C 103.666 171.798,97.234 187.112,106.560 198.077 C 112.984 205.631,126.501 207.784,136.518 202.849 C 138.202 202.019,142.372 198.939,142.374 198.523 C 142.375 198.403,142.757 197.889,143.222 197.381 C 146.322 193.994,147.767 186.765,146.305 181.954 C 143.241 171.872,131.003 165.813,119.008 168.439 M250.124 168.427 C 239.556 170.148,234.580 177.052,238.579 184.448 C 240.213 187.471,246.963 189.843,253.903 189.833 C 256.146 189.829,255.223 189.605,251.464 189.239 C 247.844 188.887,247.203 188.764,243.831 187.777 C 236.316 185.576,235.499 175.824,242.458 171.391 C 245.825 169.247,248.392 168.741,255.932 168.733 C 260.341 168.729,262.065 168.647,260.863 168.499 C 256.923 168.015,252.827 167.987,250.124 168.427 M311.304 168.428 C 302.648 170.372,294.864 177.472,294.933 183.359 C 294.944 184.235,295.826 182.090,295.835 181.168 C 295.847 179.932,298.120 176.496,300.486 174.137 C 305.176 169.462,314.350 167.260,322.650 168.816 C 325.223 169.299,329.892 171.258,330.997 172.318 C 331.237 172.548,332.045 173.214,332.793 173.799 C 334.506 175.138,336.500 177.237,336.510 177.712 C 336.518 178.077,330.094 181.510,329.404 181.510 C 329.201 181.510,328.653 181.111,328.187 180.623 C 322.726 174.909,312.459 174.455,306.539 179.666 C 302.742 183.008,302.500 189.532,306.032 193.364 C 310.407 198.109,321.052 198.613,326.191 194.318 C 328.632 192.279,328.375 192.165,320.951 191.988 L 314.484 191.834 314.484 188.136 L 314.484 184.438 326.602 184.357 L 338.720 184.276 338.580 186.822 C 338.216 193.411,334.891 199.292,330.173 201.692 C 329.510 202.029,328.898 202.380,328.814 202.471 C 328.296 203.027,324.214 204.328,321.901 204.675 C 316.404 205.499,314.299 205.355,307.982 203.723 C 303.137 202.471,295.840 195.566,295.840 192.233 C 295.840 191.906,295.682 191.344,295.489 190.984 C 295.296 190.623,295.028 188.933,294.894 187.229 L 294.650 184.129 294.767 187.365 C 295.565 209.556,333.076 212.436,338.503 190.723 C 338.814 189.480,338.976 187.801,338.920 186.409 L 338.829 184.129 326.692 184.049 C 312.413 183.954,313.713 183.559,313.713 187.994 C 313.713 192.732,313.046 192.295,320.295 192.301 C 327.537 192.306,327.785 192.378,326.030 193.963 C 320.237 199.196,307.933 197.275,304.612 190.617 C 299.058 179.483,316.899 171.396,327.325 180.322 C 328.287 181.145,329.270 181.818,329.512 181.818 C 329.842 181.818,336.499 178.679,337.082 178.248 C 337.628 177.845,334.909 174.879,332.049 172.759 C 330.119 171.327,329.210 170.821,325.886 169.323 C 323.229 168.126,314.917 167.616,311.304 168.428 M128.949 168.596 C 137.503 170.138,144.241 175.344,145.863 181.664 C 148.376 191.460,142.905 200.746,132.701 204.002 C 124.318 206.678,111.849 204.017,107.505 198.627 C 107.226 198.280,106.634 197.581,106.190 197.072 C 102.332 192.653,101.644 185.007,104.573 179.076 C 108.361 171.405,119.048 166.810,128.949 168.596 M16.474 169.260 C 16.393 169.472,16.363 177.481,16.407 187.057 L 16.487 204.468 20.801 204.468 L 25.116 204.468 25.270 198.459 L 25.424 192.450 35.901 192.276 C 42.782 192.162,46.853 191.971,47.758 191.720 C 59.179 188.552,58.563 172.338,46.907 169.302 C 44.632 168.709,16.700 168.671,16.474 169.260 M60.280 169.363 C 59.995 170.104,60.065 203.795,60.352 204.247 C 60.540 204.542,61.637 204.620,64.739 204.555 L 68.875 204.468 68.959 198.790 C 69.014 195.098,69.167 192.964,69.396 192.687 C 69.889 192.093,82.623 192.242,82.823 192.844 C 82.895 193.060,84.779 195.764,87.011 198.853 L 91.067 204.468 95.926 204.553 C 102.042 204.660,101.955 204.823,98.440 199.846 C 92.206 191.020,92.435 191.573,94.530 190.393 C 103.193 185.516,100.624 171.726,90.601 169.306 C 87.860 168.645,60.536 168.695,60.280 169.363 M150.768 186.672 L 150.847 204.468 162.866 204.556 C 174.760 204.643,178.417 204.405,180.572 203.403 C 187.191 200.325,190.097 197.258,191.825 191.525 C 192.695 188.637,192.283 182.082,191.081 179.708 C 190.939 179.428,190.565 178.647,190.250 177.973 C 189.659 176.711,185.198 171.957,184.604 171.957 C 184.421 171.957,183.754 171.642,183.122 171.256 C 179.817 169.242,176.678 168.875,162.768 168.875 L 150.688 168.875 150.768 186.672 M196.444 169.258 C 196.363 169.471,196.332 177.481,196.376 187.057 L 196.456 204.468 214.792 204.468 L 233.128 204.468 233.214 200.584 C 233.280 197.592,233.203 196.620,232.878 196.350 C 232.581 196.104,228.463 195.977,218.925 195.920 L 205.393 195.840 205.300 193.689 C 205.249 192.506,205.286 191.225,205.382 190.843 L 205.556 190.148 214.720 190.066 L 223.883 189.985 223.973 186.595 C 224.022 184.730,223.985 182.895,223.891 182.516 L 223.719 181.827 214.556 181.746 L 205.393 181.664 205.297 180.144 C 205.244 179.307,205.281 178.302,205.380 177.909 L 205.559 177.196 218.813 177.196 L 232.067 177.196 231.981 173.112 L 231.895 169.029 214.244 168.950 C 200.287 168.887,196.562 168.951,196.444 169.258 M263.636 169.322 C 264.145 169.570,264.934 169.778,265.390 169.786 C 265.846 169.793,266.305 169.938,266.410 170.108 C 266.515 170.277,266.800 170.416,267.044 170.416 C 267.579 170.416,271.143 172.074,272.958 173.167 C 274.576 174.141,274.590 174.567,273.059 176.209 C 272.393 176.922,271.355 178.084,270.750 178.790 L 269.652 180.073 268.031 179.293 C 260.037 175.449,248.636 174.867,246.556 178.198 C 245.265 180.266,248.444 181.316,257.011 181.652 C 259.666 181.757,259.252 181.679,254.700 181.222 C 247.826 180.531,246.051 179.904,246.835 178.441 C 248.469 175.387,260.915 176.065,267.765 179.581 C 269.655 180.551,269.616 180.568,272.173 177.735 C 275.185 174.398,275.187 174.390,273.327 173.053 C 272.488 172.450,271.742 171.957,271.670 171.957 C 271.599 171.957,270.491 171.473,269.210 170.881 C 267.048 169.882,265.385 169.338,263.482 169.007 C 262.789 168.886,262.805 168.918,263.636 169.322 M281.122 186.672 L 281.202 204.468 285.205 204.555 C 288.701 204.631,289.257 204.575,289.596 204.111 C 290.100 203.422,290.166 170.407,289.666 169.471 C 289.374 168.927,288.984 168.875,285.195 168.875 L 281.043 168.875 281.122 186.672 M343.762 169.877 C 343.664 170.428,343.624 178.228,343.674 187.211 L 343.765 203.544 343.839 186.733 C 343.895 174.154,344.007 169.830,344.284 169.553 C 344.533 169.304,345.953 169.183,348.655 169.183 L 352.656 169.183 354.679 171.289 C 356.905 173.606,362.757 179.880,363.618 180.872 C 363.917 181.217,365.881 183.335,367.982 185.580 C 370.083 187.824,372.382 190.287,373.089 191.053 C 373.797 191.818,374.490 192.331,374.630 192.191 C 374.770 192.051,374.954 186.852,375.039 180.637 L 375.193 169.337 378.582 169.248 C 380.447 169.199,382.285 169.236,382.668 169.331 L 383.364 169.505 383.285 186.832 L 383.205 204.160 379.065 204.247 L 374.926 204.333 372.440 201.776 C 370.083 199.352,364.305 193.161,363.069 191.736 C 362.753 191.372,360.828 189.303,358.790 187.139 C 356.753 184.975,354.704 182.748,354.238 182.190 C 352.733 180.390,352.708 180.549,352.542 192.784 L 352.388 204.160 348.406 204.247 C 345.428 204.312,344.361 204.234,344.174 203.939 C 343.990 203.649,343.922 203.687,343.918 204.083 C 343.912 204.862,352.365 204.912,352.663 204.135 C 352.766 203.867,352.851 198.736,352.851 192.733 C 352.851 186.660,352.971 181.818,353.122 181.818 C 353.271 181.818,354.049 182.546,354.851 183.436 C 355.652 184.326,357.229 186.025,358.355 187.212 C 359.480 188.400,361.158 190.202,362.084 191.219 C 364.282 193.632,371.753 201.629,373.389 203.319 L 374.667 204.640 379.090 204.554 L 383.513 204.468 383.513 186.749 L 383.513 169.029 379.199 169.029 L 374.884 169.029 374.804 180.354 C 374.759 186.583,374.604 191.680,374.459 191.680 C 374.314 191.680,373.325 190.743,372.262 189.599 C 371.199 188.455,369.413 186.547,368.293 185.358 C 367.172 184.169,365.424 182.296,364.407 181.195 C 361.985 178.574,354.778 170.862,353.708 169.747 L 352.871 168.875 348.406 168.875 L 343.942 168.875 343.762 169.877 M45.892 169.511 C 52.045 170.505,55.316 174.403,55.316 180.740 C 55.316 189.887,51.480 191.988,34.782 191.988 C 28.130 191.988,25.602 192.087,25.331 192.357 C 25.070 192.619,24.961 194.428,24.961 198.530 L 24.961 204.332 20.878 204.246 L 16.795 204.160 16.715 186.923 C 16.653 173.337,16.718 169.633,17.024 169.439 C 17.615 169.063,43.522 169.128,45.892 169.511 M89.651 169.511 C 92.257 169.932,94.706 171.135,96.301 172.775 C 97.569 174.080,97.791 174.441,98.752 176.755 C 99.633 178.876,98.984 186.441,97.922 186.441 C 97.793 186.441,97.689 186.609,97.689 186.814 C 97.689 187.318,95.197 189.831,94.697 189.831 C 94.478 189.831,94.299 189.939,94.299 190.071 C 94.299 190.203,93.892 190.465,93.394 190.653 C 92.647 190.935,92.523 191.121,92.678 191.722 C 92.881 192.506,96.073 197.314,96.504 197.483 C 96.647 197.540,96.764 197.707,96.764 197.855 C 96.764 198.095,98.782 201.179,99.498 202.032 C 99.653 202.217,100.007 202.807,100.283 203.342 L 100.786 204.314 96.233 204.305 C 91.159 204.294,91.282 204.336,89.664 202.010 C 89.078 201.167,88.494 200.335,88.367 200.161 C 88.241 199.988,86.959 198.184,85.520 196.153 C 82.362 191.698,83.167 192.036,75.639 192.009 C 68.029 191.983,68.721 191.366,68.721 198.175 C 68.721 204.794,69.041 204.363,64.209 204.247 L 60.555 204.160 60.475 187.057 C 60.431 177.650,60.461 169.780,60.542 169.569 C 60.734 169.067,86.586 169.016,89.651 169.511 M175.809 169.508 C 180.654 170.154,184.206 171.719,187.110 174.489 C 188.355 175.676,190.447 178.774,190.447 179.430 C 190.447 179.659,190.584 179.983,190.752 180.151 C 191.690 181.089,192.177 188.733,191.476 191.525 C 190.667 194.747,186.612 200.203,184.271 201.220 C 183.854 201.401,183.097 201.792,182.589 202.090 C 179.437 203.934,176.053 204.314,162.770 204.314 L 151.002 204.314 151.002 186.749 L 151.002 169.183 162.173 169.181 C 168.349 169.180,174.446 169.326,175.809 169.508 M231.367 169.444 C 231.660 169.630,231.740 170.606,231.675 173.214 L 231.587 176.733 218.418 176.814 L 205.249 176.894 205.072 177.597 C 204.975 177.984,204.939 179.126,204.990 180.136 L 205.085 181.972 214.090 182.054 C 224.691 182.150,223.796 181.733,223.663 186.518 L 223.575 189.676 214.664 189.758 C 204.222 189.854,204.931 189.602,204.931 193.220 C 204.931 196.903,203.638 196.591,219.288 196.684 L 232.820 196.764 232.910 199.846 C 232.959 201.541,232.922 203.240,232.827 203.621 L 232.654 204.314 214.632 204.314 L 196.610 204.314 196.610 186.749 L 196.610 169.183 213.790 169.188 C 223.240 169.191,231.149 169.306,231.367 169.444 M289.181 169.671 C 289.284 169.939,289.368 177.624,289.368 186.749 C 289.368 195.874,289.284 203.559,289.181 203.827 C 289.025 204.235,288.373 204.314,285.175 204.314 L 281.356 204.314 281.356 186.749 L 281.356 169.183 285.175 169.183 C 288.373 169.183,289.025 169.263,289.181 169.671 M120.493 176.462 C 110.112 179.172,107.692 190.990,116.595 195.495 C 119.594 197.012,126.277 197.819,128.351 196.914 C 128.728 196.750,127.950 196.713,126.348 196.820 C 123.029 197.040,119.753 196.533,117.315 195.421 C 108.197 191.264,110.420 178.607,120.570 176.890 C 121.460 176.739,122.653 176.518,123.221 176.399 C 128.091 175.375,135.800 179.312,137.209 183.542 C 137.522 184.483,137.720 184.788,137.731 184.348 C 137.872 179.139,127.832 174.546,120.493 176.462 M25.108 177.581 C 25.013 177.962,24.976 179.592,25.025 181.202 L 25.116 184.129 34.492 184.211 C 46.347 184.314,47.153 184.088,47.148 180.648 C 47.144 177.355,45.580 176.898,34.289 176.892 L 25.281 176.888 25.108 177.581 M69.091 177.257 C 68.704 177.644,68.557 182.882,68.908 183.796 C 69.194 184.540,87.021 184.525,88.973 183.779 C 91.978 182.631,91.478 178.437,88.199 177.295 C 86.626 176.747,69.635 176.714,69.091 177.257 M159.333 177.484 C 158.761 178.552,158.912 195.539,159.498 196.126 C 160.227 196.854,174.010 196.837,176.530 196.104 C 179.483 195.246,181.170 193.899,182.265 191.525 C 182.577 190.847,182.952 190.052,183.096 189.758 C 184.600 186.696,182.302 180.565,178.903 178.573 C 175.857 176.788,160.172 175.915,159.333 177.484 M43.451 177.515 C 46.342 177.970,47.468 179.722,46.444 182.172 C 45.750 183.833,44.361 184.029,34.052 183.916 L 25.424 183.821 25.333 181.202 C 25.283 179.761,25.320 178.270,25.416 177.889 L 25.590 177.196 33.519 177.198 C 37.880 177.199,42.350 177.342,43.451 177.515 M87.221 177.548 C 89.931 177.995,90.453 178.520,90.431 180.774 C 90.401 183.816,89.839 183.965,78.387 183.971 L 69.409 183.975 69.224 183.282 C 68.920 182.149,69.004 178.435,69.348 177.792 C 69.730 177.079,83.263 176.894,87.221 177.548 M174.517 177.524 C 184.023 178.934,186.385 190.541,178.120 195.228 C 177.115 195.798,176.452 195.840,168.413 195.840 L 159.784 195.840 159.702 186.907 C 159.657 181.993,159.688 177.799,159.770 177.585 C 159.961 177.086,171.252 177.040,174.517 177.524 M261.941 182.150 C 271.036 183.499,273.972 185.289,275.549 190.447 C 275.927 191.685,276.074 191.916,276.092 191.303 C 276.233 186.577,268.695 181.653,261.633 181.859 L 260.247 181.899 261.941 182.150 M137.843 186.749 C 137.843 187.681,137.901 188.062,137.971 187.596 C 138.042 187.130,138.042 186.367,137.971 185.901 C 137.901 185.435,137.843 185.817,137.843 186.749 M137.192 189.867 C 136.400 192.431,133.788 194.853,130.561 196.014 C 129.685 196.330,129.262 196.593,129.622 196.599 C 132.543 196.649,138.181 191.403,137.704 189.079 C 137.642 188.779,137.424 189.114,137.192 189.867 M258.398 190.157 C 265.644 190.699,267.956 191.895,266.386 194.292 C 264.614 196.997,257.561 197.624,248.844 195.852 C 247.995 195.680,248.008 195.700,248.998 196.098 C 251.612 197.147,256.777 197.691,259.630 197.218 C 260.817 197.021,262.271 196.784,262.862 196.693 C 263.453 196.601,264.493 196.175,265.173 195.747 C 269.837 192.810,266.126 189.738,258.082 189.879 L 255.316 189.927 258.398 190.157 M239.827 192.833 C 239.363 193.320,238.775 193.988,238.521 194.318 C 238.267 194.648,237.626 195.472,237.098 196.149 C 235.524 198.168,235.537 198.478,237.248 199.756 C 239.664 201.560,245.041 204.060,245.505 203.596 C 245.595 203.506,245.066 203.257,244.329 203.042 C 241.450 202.203,236.364 199.174,236.364 198.300 C 236.364 197.523,240.149 192.604,240.747 192.604 C 241.055 192.604,241.824 192.920,242.456 193.306 C 243.088 193.692,244.091 194.232,244.684 194.506 C 245.277 194.780,246.144 195.181,246.610 195.397 C 247.076 195.613,247.528 195.718,247.615 195.631 C 247.702 195.544,246.835 195.079,245.689 194.598 C 244.543 194.116,243.120 193.426,242.527 193.065 C 241.934 192.703,241.274 192.303,241.060 192.177 C 240.822 192.036,240.344 192.290,239.827 192.833 M275.809 194.046 C 275.809 195.759,274.419 198.516,272.677 200.258 C 270.970 201.965,269.856 202.553,265.639 203.974 C 262.247 205.117,254.345 205.076,246.841 203.877 L 245.763 203.704 246.687 204.036 C 254.308 206.769,267.918 205.036,272.717 200.721 C 274.716 198.924,277.181 193.529,276.004 193.529 C 275.897 193.529,275.809 193.761,275.809 194.046 M170.878 224.861 C 166.334 226.269,164.757 228.085,164.741 231.930 C 164.732 234.236,165.972 236.660,167.411 237.147 C 167.708 237.248,167.951 237.459,167.951 237.617 C 167.951 237.775,168.200 237.904,168.505 237.904 C 168.810 237.904,169.233 238.078,169.445 238.290 C 170.171 239.016,176.169 238.796,177.887 237.981 C 181.874 236.088,183.139 232.038,180.961 228.139 C 179.532 225.581,174.174 223.839,170.878 224.861 M252.518 224.918 C 245.239 226.895,244.034 234.258,250.385 237.946 C 251.833 238.786,258.154 239.042,258.906 238.290 C 259.118 238.078,259.518 237.904,259.795 237.904 C 260.469 237.904,262.476 235.871,263.204 234.450 C 266.030 228.937,259.421 223.042,252.518 224.918 M116.487 231.895 L 116.487 238.521 117.257 238.521 L 118.028 238.521 118.028 231.895 L 118.028 225.270 117.257 225.270 L 116.487 225.270 116.487 231.895 M123.883 231.895 L 123.883 238.521 124.653 238.521 L 125.424 238.521 125.424 233.179 C 125.424 226.568,125.509 226.459,128.281 229.502 C 128.998 230.288,130.642 232.050,131.935 233.416 C 133.228 234.783,134.811 236.491,135.452 237.211 C 136.441 238.322,136.799 238.521,137.801 238.521 L 138.983 238.521 138.983 231.895 L 138.983 225.270 138.220 225.270 L 137.457 225.270 137.373 230.427 C 137.276 236.308,137.059 236.739,135.192 234.749 C 132.248 231.614,127.787 226.787,127.180 226.081 C 126.632 225.443,126.205 225.270,125.183 225.270 L 123.883 225.270 123.883 231.895 M144.530 231.895 L 144.530 238.521 145.300 238.521 L 146.071 238.521 146.071 233.128 C 146.071 225.846,145.190 225.523,155.542 236.595 C 157.125 238.288,157.482 238.521,158.487 238.521 L 159.630 238.521 159.630 231.895 L 159.630 225.270 158.867 225.270 L 158.104 225.270 158.020 230.586 C 157.910 237.480,158.375 237.564,150.772 229.276 C 147.020 225.185,147.125 225.270,145.783 225.270 L 144.530 225.270 144.530 231.895 M184.977 226.117 C 185.182 226.583,185.422 227.034,185.510 227.119 C 185.598 227.203,186.068 228.035,186.554 228.968 C 191.504 238.460,191.433 238.353,192.848 238.460 C 194.067 238.552,194.091 238.533,194.989 236.765 C 197.137 232.537,200.278 226.771,200.654 226.364 C 201.194 225.779,200.919 225.270,200.064 225.270 C 199.156 225.270,199.257 225.114,195.489 232.357 C 195.004 233.290,194.538 234.122,194.453 234.206 C 194.368 234.291,194.086 234.776,193.826 235.283 C 193.566 235.790,193.150 236.243,192.902 236.289 C 192.385 236.384,192.452 236.494,188.089 228.428 C 186.412 225.328,186.363 225.270,185.449 225.270 C 184.643 225.270,184.622 225.308,184.977 226.117 M208.915 226.882 C 208.207 228.333,206.169 232.229,203.890 236.487 C 202.883 238.368,202.883 238.586,203.891 238.464 C 204.500 238.391,204.889 238.005,205.464 236.903 L 206.229 235.439 211.089 235.439 C 216.377 235.439,216.194 235.382,217.255 237.369 C 217.666 238.137,218.024 238.390,218.813 238.468 C 219.632 238.548,219.771 238.486,219.507 238.159 C 219.152 237.719,217.285 234.236,214.499 228.814 L 212.757 225.424 211.232 225.341 L 209.707 225.259 208.915 226.882 M221.013 225.809 C 221.102 226.273,221.548 226.360,224.195 226.433 C 228.235 226.544,228.043 226.214,228.043 233.033 L 228.043 238.521 228.807 238.521 L 229.571 238.521 229.654 232.589 L 229.738 226.656 232.971 226.502 C 235.732 226.371,236.218 226.270,236.306 225.809 C 236.402 225.307,235.874 225.270,228.659 225.270 C 221.445 225.270,220.917 225.307,221.013 225.809 M239.753 231.895 L 239.753 238.521 240.678 238.521 L 241.602 238.521 241.602 231.895 L 241.602 225.270 240.678 225.270 L 239.753 225.270 239.753 231.895 M268.413 231.895 L 268.413 238.521 269.337 238.521 L 270.262 238.521 270.262 233.146 C 270.262 225.831,269.460 225.650,278.082 234.918 C 281.373 238.457,281.457 238.521,282.781 238.521 L 284.129 238.521 284.129 231.895 L 284.129 225.270 283.205 225.270 L 282.280 225.270 282.280 230.141 C 282.280 237.774,282.881 237.862,274.612 229.020 C 271.164 225.333,271.081 225.270,269.759 225.270 L 268.413 225.270 268.413 231.895 M177.264 227.067 C 179.860 228.513,180.987 231.630,179.768 233.991 C 179.161 235.164,177.543 236.660,176.872 236.667 C 176.609 236.670,176.251 236.815,176.076 236.991 C 174.949 238.118,169.233 237.018,167.723 235.383 C 163.105 230.385,170.947 223.550,177.264 227.067 M258.825 226.947 C 263.040 229.126,262.934 234.859,258.644 236.698 C 257.171 237.330,253.156 237.526,252.153 237.016 C 251.859 236.866,251.218 236.556,250.730 236.326 C 246.376 234.277,247.910 227.249,252.897 226.399 C 254.351 226.152,257.926 226.482,258.825 226.947 M212.536 228.582 C 215.567 233.635,215.503 233.898,211.248 233.898 C 207.363 233.898,207.216 233.753,208.495 231.182 C 210.745 226.661,211.205 226.365,212.536 228.582 " stroke="none" fill="#858486" fill-rule="evenodd"></path><path id="path4" d="M234.052 69.497 C 230.085 71.633,229.426 75.661,232.340 79.962 C 234.250 82.782,235.976 86.675,237.261 91.063 C 238.178 94.193,238.176 103.118,237.258 104.833 C 237.105 105.119,236.980 105.560,236.980 105.813 C 236.980 106.561,235.155 110.310,233.659 112.634 C 230.816 117.052,224.536 121.763,219.877 122.972 C 219.368 123.104,218.536 123.352,218.028 123.522 C 213.338 125.091,207.870 125.525,195.299 125.330 C 182.109 125.124,180.524 124.812,177.651 121.857 C 172.634 116.695,173.808 108.130,179.969 104.939 C 180.562 104.632,181.325 104.238,181.664 104.065 C 182.653 103.558,194.576 103.169,202.801 103.375 C 211.328 103.588,212.107 103.448,214.057 101.344 C 216.855 98.326,215.900 93.437,212.165 91.657 C 207.764 89.560,181.611 90.528,175.856 93.000 C 171.838 94.726,164.561 101.425,164.561 103.398 C 164.561 103.624,163.757 105.529,163.292 106.407 C 161.922 108.989,161.913 119.674,163.278 122.231 C 163.447 122.546,163.824 123.353,164.118 124.024 C 165.931 128.173,170.589 133.084,174.422 134.889 C 179.693 137.370,181.604 137.668,193.837 137.919 C 202.307 138.093,207.558 137.899,214.330 137.162 C 220.320 136.510,228.885 133.331,233.562 130.025 C 234.510 129.355,235.562 128.635,235.901 128.425 C 236.634 127.971,241.816 122.812,242.638 121.718 C 245.136 118.394,247.770 113.368,248.690 110.169 C 248.836 109.661,249.180 108.482,249.454 107.550 C 251.019 102.221,250.790 91.319,249.016 86.749 C 248.884 86.410,248.528 85.300,248.224 84.284 C 247.711 82.569,246.415 79.534,244.932 76.579 C 241.721 70.180,237.675 67.546,234.052 69.497 M239.988 70.464 C 242.316 72.325,246.374 79.670,247.879 84.746 C 248.155 85.678,248.590 87.104,248.844 87.915 C 249.098 88.726,249.307 89.723,249.307 90.129 C 249.307 90.536,249.454 91.256,249.633 91.729 C 250.073 92.885,250.059 102.869,249.615 104.879 C 248.089 111.793,245.574 117.316,241.840 121.959 C 239.254 125.173,233.316 130.063,230.007 131.702 C 226.629 133.376,223.051 134.795,220.955 135.294 C 220.362 135.435,218.975 135.769,217.874 136.037 C 216.772 136.304,214.206 136.659,212.173 136.826 C 210.139 136.992,208.144 137.206,207.741 137.301 C 206.461 137.603,189.648 137.475,185.418 137.131 C 180.927 136.767,178.478 136.239,176.032 135.111 C 175.137 134.698,174.332 134.361,174.243 134.361 C 172.552 134.361,164.561 125.797,164.561 123.985 C 164.561 123.823,164.268 123.085,163.910 122.344 C 162.282 118.974,162.088 110.818,163.546 107.088 C 164.550 104.521,164.993 103.641,166.263 101.695 C 168.453 98.339,171.316 95.824,175.039 93.988 C 176.140 93.445,177.300 92.865,177.615 92.701 C 179.618 91.657,188.762 91.125,201.305 91.324 L 211.085 91.479 212.371 92.350 C 216.055 94.844,216.093 99.818,212.447 102.207 C 211.709 102.691,210.430 102.745,198.959 102.778 C 182.451 102.826,180.305 103.190,177.240 106.459 C 174.444 109.443,173.136 114.925,174.547 117.753 C 174.817 118.295,175.039 118.891,175.039 119.077 C 175.040 120.817,179.340 124.237,182.698 125.168 C 185.503 125.946,207.724 126.013,212.349 125.257 C 215.788 124.696,219.143 123.889,219.553 123.526 C 219.714 123.383,220.079 123.267,220.364 123.267 C 223.005 123.267,230.690 117.660,233.471 113.704 C 235.422 110.928,237.288 107.356,237.288 106.396 C 237.288 106.082,237.413 105.693,237.565 105.532 C 237.717 105.371,237.905 104.684,237.984 104.006 C 238.062 103.328,238.303 101.685,238.520 100.356 C 239.354 95.227,236.561 84.926,233.069 80.248 C 232.678 79.724,232.357 79.180,232.357 79.040 C 232.357 78.900,232.171 78.566,231.942 78.299 C 228.034 73.721,235.260 66.685,239.988 70.464 M185.670 74.629 C 170.507 75.918,159.494 81.446,152.005 91.525 C 150.456 93.612,147.304 99.576,147.304 100.422 C 147.304 100.763,147.181 101.118,147.030 101.211 C 146.880 101.304,146.663 101.884,146.547 102.500 C 146.431 103.116,146.223 103.845,146.084 104.121 C 144.242 107.772,144.475 119.112,146.534 126.040 C 146.811 126.972,147.145 128.151,147.276 128.659 C 147.406 129.168,148.021 130.639,148.641 131.928 C 149.261 133.217,149.769 134.362,149.769 134.473 C 149.769 134.945,153.335 140.463,154.292 141.473 C 159.166 146.614,167.761 140.043,163.997 134.052 C 163.624 133.459,163.236 132.731,163.134 132.435 C 163.032 132.138,162.842 131.895,162.712 131.895 C 162.582 131.895,162.394 131.653,162.295 131.356 C 162.195 131.059,161.979 130.609,161.815 130.354 C 161.262 129.499,159.226 124.970,158.974 124.037 C 158.837 123.529,158.436 122.072,158.083 120.801 C 157.315 118.035,157.119 111.407,157.733 108.936 C 158.472 105.959,159.145 103.996,159.792 102.928 C 160.152 102.334,160.538 101.598,160.651 101.292 C 162.137 97.269,168.941 91.692,175.193 89.374 C 180.343 87.464,190.829 86.322,199.599 86.716 C 209.528 87.162,213.142 87.445,213.883 87.834 C 214.298 88.053,214.846 88.349,215.100 88.494 C 215.354 88.638,215.770 88.847,216.025 88.958 C 216.462 89.149,218.589 91.265,219.264 92.181 C 222.565 96.657,220.498 104.706,215.377 107.321 C 212.549 108.765,211.503 108.858,197.168 108.940 C 183.827 109.017,183.695 109.023,182.588 109.708 C 178.027 112.526,179.143 119.571,184.387 121.074 C 186.303 121.623,209.827 121.646,212.943 121.102 C 229.067 118.288,237.871 102.539,231.281 88.301 C 228.287 81.832,222.493 77.071,215.562 75.386 C 211.323 74.354,194.046 73.917,185.670 74.629 M210.015 75.196 C 215.288 75.531,216.818 75.861,219.462 77.233 C 219.912 77.467,220.490 77.658,220.746 77.658 C 221.002 77.658,221.258 77.762,221.315 77.889 C 221.371 78.016,222.042 78.526,222.804 79.023 C 225.812 80.981,229.383 85.064,230.640 87.982 C 230.932 88.659,231.358 89.630,231.587 90.139 C 231.816 90.647,232.072 91.479,232.155 91.988 C 232.239 92.496,232.454 93.467,232.633 94.145 C 233.817 98.620,232.230 106.020,229.089 110.665 C 227.011 113.739,223.262 117.016,220.185 118.447 C 219.507 118.763,218.730 119.132,218.458 119.269 C 214.147 121.436,186.159 121.893,182.854 119.850 C 179.682 117.890,179.284 113.111,182.099 110.786 C 183.776 109.401,183.547 109.421,197.487 109.410 C 211.682 109.398,212.486 109.327,215.477 107.817 C 219.451 105.810,222.194 100.325,221.272 96.225 C 220.559 93.055,217.752 88.752,216.397 88.752 C 216.192 88.752,216.025 88.640,216.025 88.503 C 216.025 86.155,188.057 85.416,179.815 87.546 C 169.515 90.209,163.440 94.655,159.631 102.319 C 159.086 103.416,158.517 104.552,158.368 104.843 C 156.730 108.039,156.478 117.379,157.904 122.034 C 158.189 122.966,158.536 124.145,158.674 124.653 C 158.965 125.723,162.018 131.958,162.368 132.197 C 162.497 132.285,162.698 132.565,162.814 132.820 C 162.930 133.074,163.322 133.767,163.684 134.361 C 167.234 140.173,158.793 145.883,154.203 140.774 C 152.419 138.789,148.382 130.860,147.408 127.429 C 147.167 126.580,146.828 125.401,146.655 124.807 C 145.010 119.169,144.900 108.645,146.443 104.468 C 146.536 104.214,146.860 103.174,147.161 102.157 C 147.802 99.995,150.554 94.182,151.184 93.659 C 151.423 93.461,151.618 93.162,151.618 92.994 C 151.618 91.960,157.571 85.863,161.017 83.368 C 165.133 80.388,171.264 77.526,175.193 76.751 C 175.871 76.617,176.633 76.422,176.888 76.316 C 179.673 75.159,199.102 74.502,210.015 75.196 M119.488 167.921 C 118.851 168.054,118.227 168.270,118.101 168.400 C 117.976 168.531,118.498 168.518,119.260 168.371 C 121.010 168.035,128.562 168.023,130.200 168.354 C 131.257 168.567,131.345 168.547,130.817 168.213 C 130.098 167.759,121.340 167.533,119.488 167.921 M250.904 167.937 C 250.003 168.080,249.171 168.293,249.055 168.411 C 248.939 168.530,249.676 168.509,250.693 168.366 C 252.982 168.043,257.524 168.033,259.784 168.346 C 261.145 168.534,261.327 168.513,260.709 168.238 C 259.727 167.801,253.056 167.596,250.904 167.937 M311.606 168.007 C 309.610 168.453,310.287 168.666,312.386 168.253 C 314.147 167.906,320.524 167.980,322.496 168.370 C 323.120 168.493,323.020 168.412,322.188 168.121 C 320.744 167.616,313.698 167.540,311.606 168.007 M16.230 168.772 C 15.831 169.172,15.992 204.158,16.394 204.561 C 16.644 204.811,18.072 204.931,20.801 204.931 C 25.961 204.931,25.578 205.454,25.578 198.398 L 25.578 192.604 35.824 192.581 C 43.965 192.562,46.293 192.466,47.149 192.116 C 48.121 191.718,48.137 191.695,47.304 191.882 C 46.795 191.996,41.664 192.170,35.901 192.269 L 25.424 192.450 25.270 198.459 L 25.116 204.468 20.801 204.468 L 16.487 204.468 16.487 186.749 L 16.487 169.029 30.663 168.936 C 45.781 168.836,46.729 168.906,49.831 170.346 C 57.224 173.779,58.047 185.851,51.182 190.163 C 50.405 190.652,49.921 191.054,50.108 191.057 C 50.701 191.068,52.858 189.336,53.795 188.098 C 59.078 181.118,55.852 171.528,47.392 169.068 C 45.606 168.549,16.728 168.275,16.230 168.772 M60.298 168.772 C 60.185 168.885,60.095 169.128,60.097 169.312 C 60.100 169.502,60.210 169.475,60.354 169.249 C 60.625 168.821,89.160 168.856,91.063 169.287 C 91.893 169.475,91.878 169.451,90.909 169.055 C 89.770 168.589,60.749 168.321,60.298 168.772 M116.025 168.875 C 115.920 169.045,115.592 169.183,115.295 169.183 C 114.998 169.183,114.487 169.402,114.158 169.668 C 113.829 169.935,113.727 170.069,113.932 169.966 C 114.137 169.863,115.108 169.515,116.089 169.192 C 117.370 168.771,117.640 168.600,117.044 168.586 C 116.588 168.576,116.129 168.706,116.025 168.875 M133.217 169.192 C 134.199 169.515,135.170 169.863,135.375 169.966 C 135.580 170.069,135.478 169.935,135.149 169.668 C 134.820 169.402,134.308 169.183,134.012 169.183 C 133.715 169.183,133.387 169.045,133.282 168.875 C 133.177 168.706,132.718 168.576,132.262 168.586 C 131.667 168.600,131.937 168.771,133.217 169.192 M150.591 168.772 C 150.478 168.885,150.385 176.995,150.385 186.794 L 150.385 204.611 151.087 204.787 C 152.622 205.172,177.325 204.793,177.966 204.374 C 178.504 204.022,178.425 204.003,177.350 204.220 C 176.672 204.356,170.431 204.468,163.482 204.468 L 150.847 204.468 150.768 186.659 L 150.688 168.850 163.557 168.979 C 170.634 169.049,176.980 169.194,177.658 169.300 C 178.745 169.471,178.708 169.440,177.350 169.044 C 175.731 168.572,151.042 168.321,150.591 168.772 M196.182 169.052 C 195.797 170.056,195.971 204.168,196.364 204.561 C 197.018 205.215,232.773 205.081,233.321 204.422 C 233.993 203.614,234.098 197.423,233.457 196.444 L 232.960 195.686 219.253 195.686 L 205.547 195.686 205.547 193.220 L 205.547 190.755 214.627 190.755 C 225.343 190.755,224.345 191.253,224.345 185.906 C 224.345 181.088,225.282 181.510,214.576 181.510 L 205.547 181.510 205.547 179.661 L 205.547 177.812 218.606 177.812 C 234.011 177.812,232.406 178.395,232.290 172.839 L 232.203 168.721 214.287 168.642 C 198.149 168.570,196.351 168.611,196.182 169.052 M245.917 169.060 L 245.146 169.530 245.917 169.333 C 246.341 169.225,247.103 169.023,247.612 168.883 L 248.536 168.630 247.612 168.609 C 247.103 168.598,246.341 168.801,245.917 169.060 M263.482 168.924 C 265.464 169.464,266.115 169.521,264.869 169.046 C 264.191 168.788,263.359 168.588,263.020 168.603 C 262.670 168.618,262.870 168.757,263.482 168.924 M280.881 168.952 C 280.800 169.164,280.770 177.311,280.814 187.057 L 280.894 204.777 285.100 204.862 C 288.623 204.934,289.387 204.867,289.800 204.455 C 290.399 203.856,290.564 170.266,289.974 169.163 C 289.578 168.424,281.158 168.229,280.881 168.952 M308.342 168.840 C 308.249 168.991,307.686 169.205,307.091 169.316 C 306.496 169.428,306.009 169.660,306.009 169.832 C 306.009 170.004,306.142 170.062,306.305 169.962 C 306.467 169.861,307.404 169.515,308.385 169.192 C 309.666 168.771,309.935 168.600,309.340 168.586 C 308.884 168.576,308.435 168.690,308.342 168.840 M324.345 168.778 C 324.911 168.906,325.916 169.331,328.814 170.664 C 332.560 172.389,337.942 177.676,336.781 178.491 C 336.444 178.727,336.453 178.759,336.826 178.657 C 338.056 178.322,335.542 174.668,332.925 172.987 C 332.444 172.677,331.772 172.164,331.433 171.845 C 330.556 171.022,325.224 168.560,324.410 168.603 C 323.789 168.635,323.783 168.651,324.345 168.778 M343.712 169.043 C 343.612 169.304,343.616 169.605,343.722 169.710 C 343.827 169.816,343.914 169.671,343.914 169.389 C 343.914 168.933,344.418 168.875,348.393 168.875 L 352.871 168.875 353.708 169.747 C 354.793 170.878,362.019 178.611,364.407 181.196 C 366.760 183.745,370.524 187.550,369.321 186.165 C 368.822 185.590,368.066 184.745,367.643 184.288 C 367.219 183.831,365.677 182.152,364.217 180.557 C 362.756 178.963,360.884 176.949,360.056 176.082 C 359.229 175.215,357.324 173.169,355.823 171.536 L 353.094 168.567 348.494 168.567 C 344.633 168.567,343.865 168.643,343.712 169.043 M374.612 169.046 C 374.508 169.319,374.422 174.488,374.421 180.534 L 374.419 191.525 372.386 189.368 C 371.268 188.182,370.463 187.419,370.596 187.673 C 370.949 188.344,374.175 191.680,374.472 191.680 C 374.610 191.680,374.759 186.583,374.804 180.354 L 374.884 169.029 379.199 169.029 L 383.513 169.029 383.513 186.749 L 383.513 204.468 379.090 204.554 L 374.667 204.640 373.389 203.319 C 371.753 201.629,364.282 193.632,362.084 191.219 C 361.158 190.202,359.480 188.400,358.355 187.212 C 357.229 186.025,355.652 184.326,354.851 183.436 C 354.049 182.546,353.265 181.818,353.110 181.818 C 352.954 181.818,353.352 182.354,353.994 183.009 C 354.636 183.664,356.618 185.771,358.398 187.692 C 363.548 193.249,365.247 195.072,366.564 196.448 C 367.242 197.157,368.479 198.489,369.313 199.408 C 370.147 200.327,371.652 201.945,372.657 203.005 L 374.484 204.931 378.884 204.931 C 382.221 204.931,383.368 204.829,383.632 204.511 C 383.884 204.207,383.958 199.211,383.901 186.406 L 383.821 168.721 379.312 168.636 C 375.403 168.562,374.777 168.617,374.612 169.046 M231.981 173.112 L 232.067 177.196 218.813 177.196 L 205.559 177.196 205.380 177.909 C 205.281 178.302,205.244 179.307,205.297 180.144 L 205.393 181.664 214.556 181.746 L 223.719 181.827 223.891 182.516 C 223.985 182.895,224.022 184.730,223.973 186.595 L 223.883 189.985 214.720 190.066 L 205.556 190.148 205.382 190.843 C 205.286 191.225,205.249 192.506,205.300 193.689 L 205.393 195.840 218.925 195.920 C 228.463 195.977,232.581 196.104,232.878 196.350 C 233.203 196.620,233.280 197.592,233.214 200.584 L 233.128 204.468 214.792 204.468 L 196.456 204.468 196.376 187.057 C 196.332 177.481,196.363 169.471,196.444 169.258 C 196.562 168.951,200.287 168.887,214.244 168.950 L 231.895 169.029 231.981 173.112 M289.666 169.471 C 290.166 170.407,290.100 203.422,289.596 204.111 C 289.257 204.575,288.701 204.631,285.205 204.555 L 281.202 204.468 281.122 186.672 L 281.043 168.875 285.195 168.875 C 288.984 168.875,289.374 168.927,289.666 169.471 M92.167 169.608 C 92.514 169.923,94.896 170.943,94.756 170.716 C 94.559 170.396,92.782 169.492,92.351 169.492 C 92.180 169.492,92.097 169.544,92.167 169.608 M243.503 169.948 C 242.127 170.706,242.097 171.035,243.463 170.382 C 244.220 170.021,244.896 169.673,244.967 169.608 C 245.274 169.329,244.156 169.588,243.503 169.948 M266.564 169.714 C 266.818 169.810,268.051 170.358,269.303 170.931 C 270.555 171.505,271.634 171.920,271.702 171.852 C 271.770 171.785,271.300 171.485,270.658 171.186 C 270.017 170.887,268.945 170.384,268.278 170.067 C 267.611 169.751,266.848 169.502,266.583 169.516 C 266.168 169.537,266.165 169.564,266.564 169.714 M112.173 170.570 C 111.684 171.158,112.142 171.152,112.925 170.560 C 113.404 170.198,113.427 170.108,113.040 170.108 C 112.774 170.108,112.384 170.316,112.173 170.570 M136.382 170.560 C 137.164 171.152,137.622 171.158,137.134 170.570 C 136.923 170.316,136.533 170.108,136.267 170.108 C 135.880 170.108,135.903 170.198,136.382 170.560 M181.356 170.331 C 181.695 170.414,182.146 170.623,182.357 170.795 C 182.618 171.007,182.743 171.007,182.743 170.795 C 182.743 170.426,181.981 170.093,181.254 170.144 C 180.874 170.170,180.901 170.219,181.356 170.331 M304.006 170.675 C 303.498 170.956,303.012 171.259,302.928 171.348 C 302.843 171.438,302.149 171.983,301.387 172.560 C 299.052 174.327,295.308 179.146,295.597 180.012 C 295.657 180.193,296.115 179.535,296.613 178.549 C 297.788 176.228,301.582 172.412,304.006 171.114 C 305.023 170.570,305.647 170.133,305.393 170.144 C 305.139 170.155,304.515 170.394,304.006 170.675 M96.633 172.641 C 97.498 173.589,98.487 175.090,98.847 176.005 C 99.205 176.914,99.507 177.423,99.518 177.135 C 99.563 175.958,96.977 171.948,95.750 171.293 C 95.365 171.088,95.749 171.673,96.633 172.641 M109.410 172.334 C 107.141 174.076,103.840 177.903,104.252 178.315 C 104.344 178.406,104.590 178.157,104.799 177.761 C 105.537 176.368,108.032 173.685,109.818 172.366 C 110.811 171.633,111.505 171.035,111.359 171.037 C 111.213 171.040,110.336 171.624,109.410 172.334 M139.014 172.009 C 140.851 173.332,143.829 176.450,144.539 177.794 C 144.858 178.397,145.121 178.683,145.124 178.428 C 145.138 177.149,139.169 171.032,137.907 171.032 C 137.770 171.032,138.268 171.472,139.014 172.009 M183.531 171.485 C 184.314 172.077,184.772 172.083,184.284 171.495 C 184.073 171.240,183.682 171.032,183.416 171.032 C 183.029 171.032,183.052 171.123,183.531 171.485 M240.032 172.496 C 238.459 174.148,237.426 175.955,237.683 176.605 C 237.810 176.925,237.862 176.896,237.880 176.496 C 237.919 175.617,239.386 173.436,240.777 172.189 C 241.485 171.554,241.921 171.034,241.745 171.033 C 241.569 171.033,240.798 171.691,240.032 172.496 M186.659 173.605 C 187.711 174.579,189.017 176.062,189.561 176.902 C 190.105 177.741,190.616 178.362,190.696 178.282 C 191.071 177.906,187.754 173.994,185.978 172.719 C 185.146 172.121,185.367 172.409,186.659 173.605 M272.111 172.114 C 272.111 172.181,272.730 172.661,273.486 173.181 C 274.502 173.881,274.809 174.266,274.663 174.660 C 274.364 175.466,270.195 180.009,269.492 180.296 C 268.989 180.500,268.972 180.550,269.400 180.566 C 270.210 180.596,275.193 175.196,275.193 174.288 C 275.193 173.893,274.276 173.156,272.804 172.366 C 272.423 172.161,272.111 172.048,272.111 172.114 M122.913 176.420 C 122.831 176.501,122.011 176.677,121.089 176.809 C 119.878 176.984,120.796 177.049,124.407 177.046 C 127.995 177.043,129.507 177.150,129.784 177.427 C 129.996 177.639,130.384 177.808,130.647 177.803 C 131.014 177.795,130.988 177.714,130.534 177.450 C 129.391 176.787,123.361 175.971,122.913 176.420 M251.464 176.698 C 248.934 177.030,249.050 177.042,254.824 177.049 L 260.803 177.056 257.905 176.681 C 254.576 176.249,254.892 176.249,251.464 176.698 M313.613 176.678 C 311.943 177.016,312.170 177.042,316.848 177.044 C 320.106 177.045,321.391 176.964,320.493 176.814 C 317.803 176.366,315.388 176.318,313.613 176.678 M25.416 177.889 C 25.320 178.270,25.283 179.761,25.333 181.202 L 25.424 183.821 34.398 183.903 C 39.569 183.950,43.683 183.860,44.106 183.691 C 44.594 183.496,41.628 183.392,35.208 183.379 L 25.578 183.359 25.578 180.586 L 25.578 177.812 35.054 177.773 C 40.872 177.750,43.995 177.640,43.143 177.488 C 42.381 177.352,38.119 177.231,33.673 177.219 L 25.590 177.196 25.416 177.889 M69.348 177.792 C 69.004 178.435,68.920 182.149,69.224 183.282 L 69.409 183.975 78.541 183.971 C 83.564 183.968,87.838 183.861,88.039 183.734 C 88.240 183.606,84.190 183.555,79.040 183.620 L 69.675 183.738 69.491 183.003 C 69.389 182.598,69.348 181.300,69.399 180.117 L 69.492 177.966 78.737 177.812 C 84.550 177.715,87.422 177.572,86.475 177.427 C 82.849 176.871,69.691 177.151,69.348 177.792 M117.477 177.867 C 116.750 178.219,116.209 178.561,116.274 178.626 C 116.414 178.767,119.260 177.537,119.260 177.335 C 119.260 177.085,118.820 177.216,117.477 177.867 M159.770 177.585 C 159.688 177.799,159.657 181.993,159.702 186.907 L 159.784 195.840 168.413 195.840 C 176.663 195.840,179.061 195.599,178.308 194.846 C 178.213 194.751,177.903 194.866,177.619 195.102 C 177.211 195.441,175.285 195.553,168.520 195.634 L 159.938 195.736 159.938 186.774 L 159.938 177.812 167.720 177.773 C 172.684 177.749,174.999 177.646,174.114 177.488 C 171.692 177.057,159.942 177.136,159.770 177.585 M237.185 177.401 C 236.902 177.684,236.925 181.748,237.211 181.925 C 237.338 182.003,237.442 180.971,237.442 179.632 C 237.442 178.292,237.431 177.196,237.417 177.196 C 237.402 177.196,237.298 177.288,237.185 177.401 M247.725 177.661 C 246.711 178.212,246.461 178.828,246.970 179.525 C 247.316 179.998,247.347 179.946,247.224 179.106 C 247.103 178.279,247.193 178.121,247.887 177.947 C 248.329 177.836,248.690 177.622,248.690 177.470 C 248.690 177.130,248.709 177.127,247.725 177.661 M261.171 177.504 C 261.276 177.673,261.665 177.802,262.037 177.790 C 262.688 177.769,262.690 177.759,262.096 177.504 C 261.247 177.139,260.946 177.139,261.171 177.504 M309.773 177.867 C 309.046 178.219,308.504 178.561,308.569 178.626 C 308.710 178.767,311.556 177.537,311.556 177.335 C 311.556 177.085,311.116 177.216,309.773 177.867 M45.165 178.264 C 45.947 178.856,46.405 178.862,45.917 178.274 C 45.706 178.020,45.316 177.812,45.050 177.812 C 44.663 177.812,44.686 177.902,45.165 178.264 M88.752 178.039 C 89.006 178.137,89.457 178.494,89.753 178.832 C 90.050 179.170,90.293 179.309,90.293 179.140 C 90.293 178.688,89.236 177.808,88.728 177.836 C 88.372 177.856,88.377 177.894,88.752 178.039 M131.759 178.264 C 132.088 178.513,132.509 178.721,132.694 178.727 C 132.879 178.732,133.596 179.291,134.287 179.969 C 135.666 181.320,136.457 181.679,135.269 180.414 C 134.421 179.511,131.943 177.812,131.475 177.812 C 131.302 177.812,131.430 178.016,131.759 178.264 M177.055 178.369 C 177.740 178.656,178.780 179.229,179.366 179.642 C 180.406 180.376,180.417 180.377,179.819 179.691 C 179.139 178.911,177.038 177.802,176.290 177.829 C 176.026 177.839,176.370 178.081,177.055 178.369 M263.749 178.286 C 264.319 178.534,264.943 178.732,265.136 178.726 C 265.745 178.707,263.973 177.834,263.328 177.835 C 262.903 177.836,263.033 177.975,263.749 178.286 M323.747 178.264 C 324.076 178.513,324.458 178.721,324.597 178.727 C 324.984 178.742,327.028 180.331,327.881 181.279 C 328.732 182.226,329.899 182.382,330.835 181.674 C 331.164 181.425,331.268 181.217,331.066 181.212 C 330.864 181.206,330.613 181.341,330.508 181.510 C 330.103 182.165,329.003 181.759,327.325 180.334 C 325.345 178.653,324.079 177.812,323.527 177.812 C 323.319 177.812,323.418 178.016,323.747 178.264 M99.607 180.740 C 99.611 183.038,99.633 183.118,99.920 181.925 C 100.128 181.064,100.126 180.256,99.915 179.459 C 99.630 178.383,99.602 178.501,99.607 180.740 M103.569 179.306 C 103.386 179.649,103.237 180.111,103.238 180.334 C 103.239 180.557,103.449 180.338,103.705 179.846 C 103.962 179.355,104.111 178.892,104.037 178.818 C 103.963 178.744,103.752 178.964,103.569 179.306 M114.255 180.224 C 112.875 181.700,111.684 183.590,111.960 183.866 C 112.038 183.944,112.403 183.385,112.772 182.624 C 113.140 181.863,114.000 180.736,114.683 180.119 C 115.366 179.502,115.865 178.936,115.791 178.862 C 115.716 178.788,115.025 179.401,114.255 180.224 M267.002 179.521 C 267.837 179.935,268.578 180.215,268.650 180.143 C 268.813 179.980,266.261 178.731,265.813 178.753 C 265.633 178.762,266.168 179.107,267.002 179.521 M306.551 180.224 C 305.171 181.700,303.980 183.590,304.256 183.866 C 304.334 183.944,304.703 183.377,305.077 182.606 C 305.450 181.834,306.322 180.719,307.014 180.126 C 307.706 179.533,308.201 178.976,308.112 178.888 C 308.024 178.799,307.321 179.401,306.551 180.224 M333.669 179.900 C 332.525 180.505,331.643 181.053,331.709 181.118 C 331.844 181.253,336.210 179.073,336.210 178.870 C 336.210 178.615,335.736 178.808,333.669 179.900 M46.256 180.561 C 46.235 181.680,46.047 182.433,45.686 182.840 C 45.267 183.313,45.249 183.416,45.605 183.302 C 46.385 183.053,46.977 181.038,46.608 179.888 C 46.300 178.929,46.287 178.955,46.256 180.561 M145.498 179.773 C 145.716 180.258,145.950 180.487,146.018 180.282 C 146.086 180.077,145.908 179.680,145.622 179.400 C 145.136 178.923,145.128 178.947,145.498 179.773 M190.765 179.087 C 190.759 179.194,190.962 179.680,191.215 180.165 C 191.469 180.651,191.677 180.832,191.678 180.567 C 191.679 180.116,190.786 178.666,190.765 179.087 M90.364 180.586 C 90.364 181.179,90.428 181.421,90.505 181.125 C 90.583 180.828,90.583 180.343,90.505 180.046 C 90.428 179.750,90.364 179.992,90.364 180.586 M248.690 180.404 C 249.284 180.648,250.254 180.841,250.847 180.835 L 251.926 180.823 250.847 180.585 C 250.254 180.454,249.284 180.260,248.690 180.154 L 247.612 179.961 248.690 180.404 M180.586 180.366 C 180.586 180.493,180.928 181.140,181.347 181.804 C 183.627 185.416,182.640 191.910,179.498 193.969 C 179.050 194.262,178.766 194.585,178.867 194.686 C 179.122 194.941,180.820 193.293,181.648 191.988 C 183.537 189.010,183.426 184.314,181.394 181.325 C 180.950 180.670,180.586 180.239,180.586 180.366 M295.102 181.063 C 294.592 182.370,294.034 186.945,294.259 187.982 C 294.440 188.821,294.535 188.327,294.686 185.761 C 294.792 183.946,295.035 182.170,295.225 181.815 C 295.416 181.459,295.519 181.009,295.454 180.815 C 295.389 180.621,295.231 180.733,295.102 181.063 M102.795 181.167 C 101.822 182.742,101.949 191.493,102.959 192.420 C 103.238 192.677,103.272 192.610,103.102 192.142 C 102.250 189.802,102.144 184.033,102.916 182.003 C 103.250 181.124,103.169 180.563,102.795 181.167 M146.097 181.202 C 146.107 181.456,146.233 181.941,146.379 182.280 L 146.644 182.897 146.661 182.280 C 146.670 181.941,146.543 181.456,146.379 181.202 C 146.114 180.791,146.082 180.791,146.097 181.202 M253.338 181.011 C 253.409 181.075,254.854 181.208,256.549 181.306 C 258.417 181.414,259.327 181.380,258.860 181.219 C 258.115 180.964,253.079 180.774,253.338 181.011 M191.897 182.126 C 192.227 183.583,192.208 190.373,191.871 191.525 C 191.642 192.305,191.666 192.387,192.025 192.049 C 192.613 191.495,192.636 182.568,192.051 181.664 C 191.701 181.122,191.682 181.177,191.897 182.126 M135.901 181.800 C 135.901 181.979,136.040 182.126,136.210 182.126 C 136.379 182.126,136.518 182.256,136.518 182.414 C 136.518 182.925,137.146 184.374,137.301 184.219 C 137.503 184.017,136.606 181.909,136.214 181.667 C 136.042 181.561,135.901 181.621,135.901 181.800 M262.096 181.804 C 263.282 181.942,264.738 182.150,265.331 182.265 C 266.236 182.442,266.317 182.417,265.833 182.110 C 265.515 181.910,264.059 181.702,262.597 181.649 L 259.938 181.552 262.096 181.804 M89.411 182.769 C 88.916 183.171,88.830 183.359,89.142 183.359 C 89.604 183.359,90.485 182.523,90.260 182.300 C 90.193 182.233,89.811 182.445,89.411 182.769 M237.632 182.928 C 237.612 183.283,238.013 184.150,238.523 184.854 C 239.736 186.529,239.983 186.506,238.853 184.823 C 238.369 184.102,237.905 183.236,237.821 182.897 C 237.674 182.305,237.666 182.306,237.632 182.928 M266.898 182.547 C 267.285 182.886,270.570 183.874,270.570 183.652 C 270.570 183.506,270.083 183.296,269.488 183.184 C 268.893 183.072,268.330 182.858,268.237 182.708 C 268.144 182.557,267.776 182.435,267.419 182.435 C 267.062 182.435,266.827 182.485,266.898 182.547 M146.818 186.749 C 146.818 190.213,146.845 190.407,147.087 188.675 C 147.242 187.573,147.242 185.925,147.087 184.823 C 146.845 183.091,146.818 183.284,146.818 186.749 M314.330 183.757 C 313.579 184.137,313.557 184.241,313.473 187.947 C 313.357 192.986,312.791 192.604,320.377 192.604 C 323.968 192.604,326.656 192.725,326.656 192.886 C 326.656 193.272,323.960 195.181,322.717 195.675 C 322.161 195.896,321.760 196.131,321.826 196.197 C 322.110 196.481,324.862 195.018,326.030 193.963 C 327.785 192.378,327.537 192.306,320.295 192.301 C 313.046 192.295,313.713 192.732,313.713 187.994 C 313.713 183.559,312.413 183.954,326.692 184.049 L 338.829 184.129 339.004 186.595 L 339.178 189.060 339.235 186.694 C 339.321 183.094,340.314 183.358,326.711 183.364 C 317.979 183.367,314.909 183.465,314.330 183.757 M99.254 184.221 C 99.241 184.441,98.965 185.169,98.641 185.839 C 98.318 186.509,98.152 187.057,98.274 187.057 C 98.619 187.057,99.604 184.628,99.432 184.202 C 99.315 183.912,99.272 183.917,99.254 184.221 M271.803 184.666 C 272.396 185.040,273.065 185.523,273.289 185.739 C 273.513 185.956,273.790 186.127,273.905 186.121 C 274.324 186.098,271.635 183.985,271.186 183.985 C 270.932 183.985,271.210 184.292,271.803 184.666 M303.960 186.749 C 303.960 188.190,304.013 188.779,304.078 188.059 C 304.143 187.338,304.143 186.159,304.078 185.439 C 304.013 184.719,303.960 185.308,303.960 186.749 M111.660 186.749 C 111.660 188.020,111.714 188.540,111.781 187.904 C 111.847 187.269,111.847 186.229,111.781 185.593 C 111.714 184.958,111.660 185.478,111.660 186.749 M137.541 186.749 C 137.541 187.851,137.597 188.301,137.665 187.750 C 137.734 187.200,137.734 186.298,137.665 185.747 C 137.597 185.196,137.541 185.647,137.541 186.749 M240.062 186.393 C 240.062 186.771,241.606 187.773,241.835 187.544 C 241.933 187.446,241.878 187.365,241.712 187.365 C 241.546 187.365,241.107 187.082,240.736 186.737 C 240.365 186.391,240.062 186.237,240.062 186.393 M274.668 187.477 C 275.041 188.047,275.390 188.403,275.443 188.267 C 275.569 187.945,274.583 186.441,274.247 186.441 C 274.105 186.441,274.294 186.907,274.668 187.477 M96.966 188.490 C 96.484 189.056,95.410 189.902,94.578 190.368 C 92.693 191.427,92.694 191.461,94.804 194.632 C 96.523 197.215,97.072 197.854,97.072 197.270 C 97.072 197.105,96.968 196.923,96.841 196.867 C 96.518 196.723,93.374 192.095,93.374 191.762 C 93.374 191.612,94.172 190.969,95.146 190.333 C 96.121 189.698,97.175 188.829,97.488 188.404 C 98.339 187.250,97.971 187.310,96.966 188.490 M242.663 188.145 C 242.992 188.394,243.616 188.579,244.050 188.556 L 244.838 188.514 244.068 188.376 C 243.644 188.300,243.166 188.111,243.005 187.955 C 242.844 187.800,242.566 187.678,242.388 187.683 C 242.210 187.689,242.334 187.897,242.663 188.145 M245.139 188.894 C 245.248 189.070,245.698 189.214,246.140 189.214 C 247.106 189.214,246.995 189.067,245.814 188.783 C 245.241 188.645,245.009 188.683,245.139 188.894 M275.707 189.368 C 276.345 190.904,276.000 195.764,275.123 197.576 C 274.097 199.698,271.780 201.856,269.310 202.990 C 268.318 203.446,267.565 203.877,267.637 203.949 C 267.827 204.140,270.568 202.969,270.569 202.696 C 270.570 202.569,270.761 202.465,270.995 202.465 C 274.162 202.465,278.128 191.999,275.959 189.368 L 275.450 188.752 275.707 189.368 M136.834 190.019 C 136.660 190.509,136.369 191.166,136.187 191.481 C 135.949 191.891,135.950 191.994,136.191 191.845 C 136.600 191.592,137.510 189.487,137.301 189.278 C 137.219 189.196,137.009 189.529,136.834 190.019 M248.536 189.558 C 249.214 189.737,251.086 189.927,252.696 189.980 L 255.624 190.078 253.313 189.840 C 247.128 189.201,247.195 189.205,248.536 189.558 M294.656 190.139 C 294.645 190.732,294.837 191.633,295.085 192.142 L 295.535 193.066 295.336 192.142 C 295.226 191.633,295.033 190.732,294.907 190.139 L 294.678 189.060 294.656 190.139 M111.864 189.770 C 111.864 191.684,117.490 196.395,119.639 196.281 C 120.021 196.261,119.831 196.162,117.257 195.039 C 115.460 194.254,113.556 192.495,112.789 190.908 C 112.146 189.582,111.864 189.234,111.864 189.770 M304.160 189.770 C 304.160 191.627,310.778 197.183,311.788 196.173 C 311.878 196.083,311.690 195.915,311.369 195.802 C 308.318 194.720,306.090 192.986,305.084 190.908 C 304.442 189.582,304.160 189.234,304.160 189.770 M338.538 190.392 C 338.411 190.955,338.384 191.491,338.476 191.584 C 338.708 191.816,339.076 190.259,338.905 189.767 C 338.829 189.548,338.664 189.829,338.538 190.392 M258.706 190.455 C 259.384 190.590,260.978 190.778,262.250 190.874 L 264.561 191.048 262.404 190.617 C 261.217 190.381,259.622 190.192,258.860 190.198 L 257.473 190.210 258.706 190.455 M146.415 190.961 C 146.395 191.159,146.289 191.575,146.180 191.885 C 146.025 192.323,146.066 192.371,146.363 192.097 C 146.573 191.904,146.679 191.488,146.598 191.173 C 146.517 190.858,146.434 190.763,146.415 190.961 M240.044 192.075 C 239.318 192.642,235.439 197.885,235.439 198.298 C 235.439 198.764,236.920 200.163,237.160 199.923 C 237.260 199.823,236.979 199.504,236.537 199.214 C 235.517 198.546,236.324 196.413,238.220 194.761 C 238.317 194.676,238.711 194.156,239.096 193.605 C 240.220 191.996,240.660 191.908,242.341 192.955 C 243.156 193.462,243.886 193.813,243.963 193.736 C 244.089 193.610,240.930 191.665,240.640 191.689 C 240.576 191.695,240.308 191.868,240.044 192.075 M266.201 192.891 C 266.267 193.579,266.444 194.065,266.596 193.971 C 266.996 193.724,266.935 192.807,266.477 192.181 C 266.136 191.715,266.098 191.813,266.201 192.891 M338.004 192.450 C 337.903 192.789,337.718 193.344,337.593 193.683 C 337.399 194.211,337.441 194.199,337.888 193.600 C 338.175 193.215,338.360 192.661,338.299 192.367 C 338.202 191.904,338.163 191.915,338.004 192.450 M72.650 192.526 C 74.388 192.581,77.230 192.581,78.968 192.526 C 80.705 192.471,79.284 192.426,75.809 192.426 C 72.334 192.426,70.913 192.471,72.650 192.526 M134.206 193.624 C 133.199 194.634,133.143 194.744,133.898 194.227 C 134.944 193.512,136.141 192.272,135.718 192.342 C 135.565 192.367,134.884 192.944,134.206 193.624 M83.583 194.590 C 84.307 195.683,85.002 196.584,85.128 196.593 C 85.253 196.603,84.768 195.718,84.049 194.629 C 83.331 193.539,82.635 192.637,82.504 192.626 C 82.373 192.614,82.859 193.498,83.583 194.590 M190.837 194.161 C 189.906 196.258,187.890 198.848,186.012 200.359 C 185.146 201.056,184.622 201.568,184.848 201.498 C 186.847 200.875,192.495 193.625,191.644 192.774 C 191.571 192.701,191.208 193.325,190.837 194.161 M69.026 198.613 L 68.875 204.468 64.739 204.555 C 61.648 204.619,60.532 204.541,60.324 204.247 C 60.112 203.946,60.076 203.963,60.171 204.314 C 60.313 204.835,68.211 205.161,68.959 204.677 C 69.259 204.483,69.331 203.052,69.264 198.591 L 69.176 192.758 69.026 198.613 M103.247 193.220 C 103.252 193.475,103.459 193.952,103.708 194.281 C 104.290 195.050,104.286 194.765,103.700 193.641 C 103.447 193.155,103.243 192.966,103.247 193.220 M145.498 193.725 C 145.128 194.551,145.136 194.575,145.622 194.098 C 145.908 193.818,146.086 193.421,146.018 193.216 C 145.950 193.010,145.716 193.239,145.498 193.725 M295.532 193.353 C 295.532 194.617,299.992 200.321,301.691 201.231 C 302.014 201.403,301.207 200.469,299.898 199.154 C 298.464 197.714,297.165 196.060,296.629 194.992 C 295.829 193.400,295.532 192.956,295.532 193.353 M244.992 194.299 C 246.005 194.878,246.506 194.884,245.745 194.309 C 245.416 194.060,244.938 193.857,244.684 193.857 C 244.416 193.858,244.545 194.044,244.992 194.299 M336.881 195.096 C 336.658 195.453,336.534 195.805,336.607 195.877 C 336.820 196.091,337.510 195.119,337.393 194.768 C 337.334 194.592,337.104 194.739,336.881 195.096 M132.034 195.032 C 131.873 195.181,131.186 195.481,130.508 195.699 C 129.831 195.916,129.428 196.146,129.613 196.208 C 129.979 196.331,132.820 195.196,132.820 194.926 C 132.820 194.670,132.358 194.732,132.034 195.032 M144.520 195.580 C 144.271 196.062,143.687 196.872,143.222 197.381 C 142.756 197.889,142.375 198.403,142.374 198.523 C 142.372 198.864,138.315 201.992,137.325 202.416 C 136.837 202.625,136.505 202.863,136.586 202.945 C 137.280 203.639,144.524 197.394,144.529 196.097 C 144.529 195.899,144.690 195.684,144.884 195.619 C 145.079 195.554,145.179 195.321,145.106 195.102 C 145.027 194.864,144.791 195.056,144.520 195.580 M246.970 195.123 C 247.294 195.311,247.988 195.575,248.510 195.709 C 249.033 195.843,249.807 196.040,250.231 196.146 L 251.002 196.341 250.231 195.870 C 249.807 195.611,249.088 195.394,248.631 195.388 C 248.175 195.382,247.716 195.239,247.612 195.069 C 247.507 194.900,247.187 194.765,246.900 194.771 C 246.450 194.779,246.460 194.827,246.970 195.123 M104.178 195.182 C 104.078 196.654,111.902 203.764,112.720 202.945 C 112.802 202.863,112.469 202.622,111.981 202.408 C 109.800 201.453,106.236 198.131,104.564 195.494 C 104.362 195.176,104.188 195.035,104.178 195.182 M263.482 195.840 C 262.455 196.427,263.169 196.428,264.295 195.842 C 264.780 195.588,264.969 195.385,264.715 195.390 C 264.461 195.395,263.906 195.598,263.482 195.840 M121.418 196.650 C 122.180 196.773,123.636 196.873,124.653 196.873 C 125.670 196.873,127.126 196.773,127.889 196.650 C 128.780 196.507,127.623 196.428,124.653 196.428 C 121.684 196.428,120.527 196.507,121.418 196.650 M253.159 196.653 C 255.177 196.930,259.315 196.939,260.830 196.669 C 261.499 196.550,259.728 196.453,256.824 196.449 C 253.681 196.444,252.228 196.525,253.159 196.653 M313.713 196.647 C 315.512 196.940,318.167 196.943,319.723 196.654 C 320.519 196.506,319.430 196.424,316.641 196.423 C 313.762 196.421,312.788 196.496,313.713 196.647 M335.551 197.271 C 334.388 198.819,332.470 200.621,330.971 201.573 C 330.208 202.057,329.792 202.454,330.046 202.453 C 330.757 202.453,334.306 199.406,335.506 197.766 C 336.095 196.961,336.510 196.302,336.428 196.302 C 336.346 196.302,335.951 196.738,335.551 197.271 M85.362 197.201 C 85.362 197.356,85.472 197.530,85.606 197.586 C 85.741 197.643,86.168 198.209,86.556 198.844 C 86.944 199.480,87.388 200.000,87.544 200.000 C 87.699 200.000,87.328 199.307,86.719 198.459 C 85.604 196.907,85.362 196.682,85.362 197.201 M97.597 198.690 C 97.894 199.156,98.215 199.607,98.312 199.692 C 98.969 200.271,101.074 203.883,100.947 204.214 C 100.826 204.529,99.694 204.622,95.999 204.622 L 91.208 204.622 89.628 202.458 C 88.759 201.267,87.986 200.355,87.911 200.430 C 87.743 200.598,90.181 204.004,90.855 204.545 C 91.419 204.998,100.349 205.090,101.043 204.651 C 101.518 204.350,101.284 202.773,100.765 202.773 C 100.598 202.773,100.462 202.633,100.462 202.461 C 100.462 202.130,97.428 197.843,97.195 197.843 C 97.120 197.843,97.301 198.224,97.597 198.690 M237.606 200.245 C 237.621 200.571,239.120 201.600,239.414 201.486 C 239.554 201.431,239.203 201.081,238.633 200.708 C 238.063 200.334,237.601 200.126,237.606 200.245 M240.417 202.017 C 240.697 202.303,241.094 202.481,241.299 202.412 C 241.504 202.344,241.275 202.110,240.790 201.892 C 239.964 201.522,239.940 201.530,240.417 202.017 M302.780 201.860 C 303.001 202.217,306.638 204.056,306.910 203.947 C 307.041 203.895,306.134 203.351,304.893 202.739 C 303.652 202.127,302.701 201.732,302.780 201.860 M181.602 202.898 C 181.059 203.096,180.516 203.356,180.395 203.478 C 180.274 203.599,179.897 203.698,179.558 203.698 C 179.219 203.698,179.034 203.790,179.146 203.902 C 179.400 204.156,182.743 203.047,182.743 202.710 C 182.743 202.575,182.708 202.482,182.666 202.502 C 182.623 202.522,182.145 202.700,181.602 202.898 M241.911 202.768 C 241.911 203.030,245.162 204.106,245.536 203.967 C 245.705 203.904,244.959 203.566,243.877 203.217 C 242.796 202.867,241.911 202.665,241.911 202.768 M113.577 203.534 C 113.906 203.783,114.384 203.990,114.638 203.994 C 114.892 203.999,114.703 203.795,114.217 203.542 C 113.094 202.956,112.808 202.952,113.577 203.534 M134.977 203.570 C 134.547 203.808,134.411 203.995,134.669 203.992 C 134.923 203.989,135.400 203.783,135.729 203.534 C 136.471 202.973,136.013 202.995,134.977 203.570 M327.273 203.570 C 326.793 203.836,326.683 203.999,326.983 204.002 C 327.247 204.004,327.732 203.803,328.061 203.554 C 328.809 202.988,328.303 202.998,327.273 203.570 M343.709 204.006 L 343.760 204.777 348.202 204.777 C 351.556 204.777,352.665 204.680,352.725 204.384 C 352.768 204.168,352.734 204.133,352.648 204.307 C 352.279 205.049,343.972 204.695,343.808 203.929 C 343.676 203.318,343.665 203.327,343.709 204.006 M115.743 204.280 C 115.927 204.481,116.621 204.707,117.284 204.782 C 118.365 204.906,118.394 204.892,117.565 204.655 C 117.057 204.510,116.364 204.284,116.025 204.153 C 115.559 203.974,115.490 204.005,115.743 204.280 M133.041 204.196 C 132.936 204.300,132.393 204.506,131.834 204.653 C 130.843 204.913,130.848 204.916,132.023 204.782 C 133.104 204.659,134.388 204.006,133.549 204.006 C 133.374 204.006,133.145 204.092,133.041 204.196 M246.995 204.451 C 247.504 204.700,248.544 204.890,249.307 204.873 L 250.693 204.844 249.153 204.614 C 248.305 204.487,247.265 204.297,246.841 204.192 C 246.198 204.031,246.224 204.074,246.995 204.451 M265.794 204.292 C 264.379 204.859,258.769 205.319,255.024 205.174 C 252.564 205.080,251.277 205.128,251.592 205.305 C 252.828 205.996,265.842 205.159,266.666 204.335 C 267.046 203.955,266.680 203.937,265.794 204.292 M308.320 204.423 C 309.573 205.013,311.963 205.553,313.179 205.520 C 313.788 205.504,313.157 205.276,311.556 204.934 C 310.116 204.626,308.590 204.287,308.166 204.181 C 307.539 204.023,307.568 204.068,308.320 204.423 M325.337 204.196 C 325.232 204.300,324.689 204.506,324.130 204.653 C 323.139 204.913,323.143 204.916,324.319 204.782 C 325.400 204.659,326.684 204.006,325.845 204.006 C 325.670 204.006,325.441 204.092,325.337 204.196 M118.952 205.221 C 119.368 205.506,122.009 205.708,121.700 205.432 C 121.629 205.369,120.878 205.225,120.031 205.112 C 118.937 204.965,118.624 204.997,118.952 205.221 M128.505 205.239 L 127.427 205.466 128.659 205.502 C 129.337 205.521,130.100 205.403,130.354 205.239 C 130.912 204.878,130.218 204.878,128.505 205.239 M320.647 205.239 C 319.757 205.465,319.768 205.475,320.955 205.506 C 321.633 205.523,322.396 205.403,322.650 205.239 C 323.217 204.873,322.086 204.873,320.647 205.239 M169.943 224.618 C 159.797 228.273,163.777 240.485,174.741 239.339 C 184.241 238.346,185.709 227.569,176.756 224.549 C 174.786 223.885,171.897 223.914,169.943 224.618 M251.790 224.545 C 242.832 227.681,244.344 238.338,253.888 239.336 C 260.225 239.998,264.855 236.219,264.303 230.833 C 263.804 225.963,257.209 222.649,251.790 224.545 M116.381 224.909 C 115.456 225.930,115.628 238.424,116.573 238.854 C 117.057 239.075,117.535 239.075,118.114 238.855 L 118.952 238.536 118.952 231.920 C 118.952 225.433,118.939 225.295,118.267 224.825 C 117.380 224.203,117.004 224.220,116.381 224.909 M123.806 224.678 C 123.318 224.962,123.267 225.639,123.267 231.746 C 123.267 239.188,123.337 239.441,125.263 238.957 L 126.040 238.762 126.045 234.096 C 126.052 227.234,125.519 227.139,133.092 235.355 C 136.478 239.029,137.509 239.627,139.161 238.874 L 139.908 238.534 139.908 231.950 C 139.908 224.450,139.671 223.629,137.806 224.675 L 136.980 225.138 136.895 230.135 C 136.798 235.846,136.863 235.757,134.644 233.223 C 127.921 225.545,125.540 223.668,123.806 224.678 M144.453 224.663 C 143.523 225.231,143.641 238.440,144.579 238.787 C 146.572 239.524,146.687 239.247,146.687 233.726 C 146.687 230.960,146.808 228.621,146.955 228.530 C 147.194 228.382,148.352 229.563,155.163 236.897 C 157.076 238.957,158.187 239.436,159.710 238.857 L 160.555 238.536 160.550 231.980 C 160.545 225.083,160.511 224.867,159.384 224.515 C 157.941 224.065,157.781 224.619,157.781 230.074 C 157.781 236.103,157.916 236.036,154.059 231.895 C 146.973 224.286,146.120 223.644,144.453 224.663 M175.718 224.908 C 180.696 226.224,182.999 229.727,181.633 233.904 C 180.535 237.263,178.016 238.675,173.128 238.675 C 170.901 238.675,169.705 238.550,169.445 238.290 C 169.233 238.078,168.810 237.904,168.505 237.904 C 168.200 237.904,167.951 237.775,167.951 237.617 C 167.951 237.459,167.708 237.248,167.411 237.147 C 165.212 236.403,163.898 231.348,165.243 228.807 C 167.008 225.476,171.517 223.797,175.718 224.908 M184.300 224.787 C 184.008 225.139,184.103 225.534,184.762 226.713 C 185.217 227.529,186.059 229.064,186.632 230.123 C 187.205 231.183,188.184 232.985,188.809 234.129 C 189.433 235.273,190.202 236.735,190.517 237.378 C 191.615 239.617,194.204 239.680,195.316 237.494 C 195.675 236.788,196.571 235.100,197.305 233.744 C 202.126 224.845,201.969 225.195,201.345 224.739 C 199.788 223.599,199.302 224.121,195.835 230.663 C 192.626 236.718,193.435 237.000,188.763 228.197 C 186.803 224.503,185.416 223.443,184.300 224.787 M210.059 224.614 C 209.554 224.812,207.777 227.964,203.471 236.297 C 202.483 238.209,202.380 238.586,202.773 238.839 C 203.384 239.231,205.004 238.900,205.393 238.303 C 205.562 238.043,205.984 237.396,206.330 236.866 L 206.958 235.901 211.408 235.901 L 215.859 235.901 216.592 237.232 C 217.428 238.747,218.412 239.269,219.590 238.821 L 220.382 238.520 218.857 235.670 C 218.019 234.102,216.470 231.156,215.416 229.122 C 212.977 224.415,212.208 223.769,210.059 224.614 M221.186 224.678 C 219.274 225.792,220.738 226.921,224.345 227.115 L 227.273 227.273 227.356 233.019 C 227.439 238.696,227.449 238.768,228.136 238.940 C 230.141 239.443,230.200 239.285,230.200 233.425 C 230.200 226.695,230.013 227.119,232.987 227.119 C 236.601 227.119,238.460 225.775,236.384 224.664 C 235.592 224.240,221.916 224.253,221.186 224.678 M240.139 224.663 C 239.449 224.940,239.445 224.978,239.445 231.741 C 239.445 239.239,239.458 239.285,241.497 238.895 L 242.219 238.757 242.219 231.921 C 242.219 224.128,242.141 223.858,240.139 224.663 M257.453 224.862 C 263.940 226.656,265.863 232.361,261.458 236.749 C 260.820 237.384,260.071 237.904,259.795 237.904 C 259.518 237.904,259.118 238.078,258.906 238.290 C 258.154 239.042,251.833 238.786,250.385 237.946 C 244.034 234.258,245.239 226.895,252.518 224.918 C 254.961 224.254,255.242 224.251,257.453 224.862 M268.644 224.663 C 268.156 224.961,268.105 225.651,268.105 231.875 L 268.105 238.757 268.826 238.895 C 270.782 239.269,270.878 239.021,270.878 233.600 C 270.878 228.281,271.059 227.771,272.359 229.423 C 272.689 229.843,274.783 232.114,277.011 234.471 C 281.155 238.852,281.777 239.273,283.590 238.922 L 284.438 238.757 284.438 231.870 C 284.438 225.377,284.404 224.965,283.842 224.664 C 281.979 223.667,281.666 224.495,281.653 230.453 L 281.641 235.593 278.186 231.896 C 271.375 224.607,271.414 224.644,270.262 224.484 C 269.669 224.401,268.941 224.481,268.644 224.663 M118.028 231.895 L 118.028 238.521 117.257 238.521 L 116.487 238.521 116.487 231.895 L 116.487 225.270 117.257 225.270 L 118.028 225.270 118.028 231.895 M127.180 226.081 C 127.787 226.787,132.248 231.614,135.192 234.749 C 137.059 236.739,137.276 236.308,137.373 230.427 L 137.457 225.270 138.220 225.270 L 138.983 225.270 138.983 231.895 L 138.983 238.521 137.801 238.521 C 136.799 238.521,136.441 238.322,135.452 237.211 C 134.811 236.491,133.228 234.783,131.935 233.416 C 130.642 232.050,128.998 230.288,128.281 229.502 C 125.509 226.459,125.424 226.568,125.424 233.179 L 125.424 238.521 124.653 238.521 L 123.883 238.521 123.883 231.895 L 123.883 225.270 125.183 225.270 C 126.205 225.270,126.632 225.443,127.180 226.081 M148.127 226.425 C 148.727 227.061,149.917 228.344,150.772 229.276 C 158.375 237.564,157.910 237.480,158.020 230.586 L 158.104 225.270 158.867 225.270 L 159.630 225.270 159.630 231.895 L 159.630 238.521 158.487 238.521 C 157.482 238.521,157.125 238.288,155.542 236.595 C 145.190 225.523,146.071 225.846,146.071 233.128 L 146.071 238.521 145.300 238.521 L 144.530 238.521 144.530 231.895 L 144.530 225.270 145.783 225.270 C 146.832 225.270,147.215 225.458,148.127 226.425 M186.628 225.809 C 186.813 226.106,187.470 227.284,188.089 228.428 C 192.452 236.494,192.385 236.384,192.902 236.289 C 193.150 236.243,193.566 235.790,193.826 235.283 C 194.086 234.776,194.368 234.291,194.453 234.206 C 194.538 234.122,195.004 233.290,195.489 232.357 C 199.257 225.114,199.156 225.270,200.064 225.270 C 200.919 225.270,201.194 225.779,200.654 226.364 C 200.278 226.771,197.137 232.537,194.989 236.765 C 194.091 238.533,194.067 238.552,192.848 238.460 C 191.433 238.353,191.504 238.460,186.554 228.968 C 186.068 228.035,185.598 227.203,185.510 227.119 C 185.422 227.034,185.182 226.583,184.977 226.117 C 184.527 225.093,186.010 224.816,186.628 225.809 M214.499 228.814 C 217.285 234.236,219.152 237.719,219.507 238.159 C 219.771 238.486,219.632 238.548,218.813 238.468 C 218.024 238.390,217.666 238.137,217.255 237.369 C 216.194 235.382,216.377 235.439,211.089 235.439 L 206.229 235.439 205.464 236.903 C 204.889 238.005,204.500 238.391,203.891 238.464 C 202.883 238.586,202.883 238.368,203.890 236.487 C 206.169 232.229,208.207 228.333,208.915 226.882 L 209.707 225.259 211.232 225.341 L 212.757 225.424 214.499 228.814 M236.306 225.809 C 236.218 226.270,235.732 226.371,232.971 226.502 L 229.738 226.656 229.654 232.589 L 229.571 238.521 228.807 238.521 L 228.043 238.521 228.043 233.033 C 228.043 226.214,228.235 226.544,224.195 226.433 C 221.548 226.360,221.102 226.273,221.013 225.809 C 220.917 225.307,221.445 225.270,228.659 225.270 C 235.874 225.270,236.402 225.307,236.306 225.809 M241.602 231.895 L 241.602 238.521 240.678 238.521 L 239.753 238.521 239.753 231.895 L 239.753 225.270 240.678 225.270 L 241.602 225.270 241.602 231.895 M274.612 229.020 C 282.881 237.862,282.280 237.774,282.280 230.141 L 282.280 225.270 283.205 225.270 L 284.129 225.270 284.129 231.895 L 284.129 238.521 282.781 238.521 C 281.457 238.521,281.373 238.457,278.082 234.918 C 269.460 225.650,270.262 225.831,270.262 233.146 L 270.262 238.521 269.337 238.521 L 268.413 238.521 268.413 231.895 L 268.413 225.270 269.759 225.270 C 271.081 225.270,271.164 225.333,274.612 229.020 M170.939 226.473 C 165.504 227.612,164.735 234.534,169.800 236.731 C 171.325 237.393,175.501 237.565,176.076 236.991 C 176.251 236.815,176.609 236.670,176.872 236.667 C 177.543 236.660,179.161 235.164,179.768 233.991 C 182.069 229.536,176.985 225.207,170.939 226.473 M252.897 226.399 C 247.910 227.249,246.376 234.277,250.730 236.326 C 251.218 236.556,251.859 236.866,252.153 237.016 C 254.260 238.088,259.397 236.926,260.825 235.054 C 264.354 230.427,259.616 225.254,252.897 226.399 M176.871 227.418 C 182.119 230.096,179.675 236.980,173.476 236.980 C 167.085 236.980,164.579 230.131,169.954 227.354 C 171.378 226.618,175.375 226.655,176.871 227.418 M258.525 227.413 C 262.848 229.619,262.214 235.339,257.506 236.598 C 249.959 238.616,245.267 230.887,251.837 227.260 C 253.010 226.613,257.142 226.707,258.525 227.413 M210.080 228.274 C 206.900 233.428,206.997 233.898,211.248 233.898 C 215.051 233.898,215.218 233.761,214.131 231.523 C 211.922 226.974,211.227 226.417,210.080 228.274 M212.910 230.209 C 214.488 233.232,214.461 233.282,211.230 233.282 C 208.161 233.282,208.140 233.244,209.643 230.411 C 211.442 227.023,211.253 227.034,212.910 230.209 " stroke="none" fill="#9eacba" fill-rule="evenodd"></path></g></svg>